<svg width="206" height="42" viewBox="0 0 206 42" fill="none" xmlns="http://www.w3.org/2000/svg">
<path d="M10.5967 20.3251L8.95417 25.632H19.3919L17.7494 20.3251C17.1136 18.3793 16.5131 16.4512 15.948 14.5407C15.3828 12.5949 14.8177 10.6136 14.2525 8.59705H14.0406C13.5107 10.6136 12.9632 12.5949 12.3981 14.5407C11.8329 16.4512 11.2324 18.3793 10.5967 20.3251ZM0 39.8012L11.7623 4.98841H16.7427L28.505 39.8012H23.7895L20.5045 29.1875H7.84152L4.50358 39.8012H0Z" fill="#212427"/>
<path d="M33.0057 39.8012V14.01H36.6085L36.9794 18.68H37.1384C38.0214 17.0526 39.0987 15.7613 40.3703 14.806C41.6419 13.8508 43.0018 13.3732 44.4501 13.3732C45.4744 13.3732 46.3928 13.5501 47.2052 13.9039L46.3574 17.7248C45.9336 17.5833 45.545 17.4771 45.1918 17.4064C44.8386 17.3356 44.3971 17.3002 43.8672 17.3002C42.7722 17.3002 41.6243 17.7425 40.4233 18.6269C39.2577 19.5114 38.2333 21.0504 37.3503 23.2439V39.8012H33.0057Z" fill="#212427"/>
<path d="M59.4803 40.438C56.7252 40.438 54.8001 39.642 53.7052 38.0499C52.6455 36.4579 52.1157 34.3882 52.1157 31.8409V17.5656H48.3009V14.2754L52.3276 14.01L52.8574 6.79273H56.5133V14.01H63.4541V17.5656H56.5133V31.894C56.5133 33.4861 56.7958 34.7243 57.361 35.6088C57.9615 36.4579 59.0035 36.8824 60.487 36.8824C60.9462 36.8824 61.4407 36.8117 61.9705 36.6701C62.5004 36.4933 62.9772 36.334 63.4011 36.1925L64.2488 39.4828C63.5424 39.7304 62.7653 39.9427 61.9175 40.1196C61.1051 40.3319 60.2927 40.438 59.4803 40.438Z" fill="#212427"/>
<path d="M78.9897 40.438C76.6938 40.438 74.6098 39.9073 72.7377 38.8459C70.8656 37.7492 69.3821 36.1925 68.2871 34.1759C67.1921 32.1593 66.6446 29.7536 66.6446 26.9587C66.6446 24.1284 67.1921 21.7049 68.2871 19.6883C69.4174 17.6717 70.8657 16.1151 72.6318 15.0183C74.3979 13.9216 76.2523 13.3732 78.195 13.3732C81.48 13.3732 84.0055 14.4699 85.7716 16.6634C87.573 18.8569 88.4737 21.7934 88.4737 25.4727C88.4737 25.9327 88.4561 26.3926 88.4208 26.8525C88.4208 27.2771 88.3854 27.6485 88.3148 27.967H70.9363C71.1129 30.6911 71.9606 32.8669 73.4795 34.4944C75.0337 36.1218 77.047 36.9355 79.5196 36.9355C80.7559 36.9355 81.8862 36.7586 82.9105 36.4048C83.9702 36.0156 84.9769 35.5203 85.9305 34.9189L87.4671 37.7846C86.3721 38.4922 85.1181 39.1113 83.7053 39.642C82.3277 40.1726 80.7559 40.438 78.9897 40.438ZM70.8833 24.8359H84.659C84.659 22.2179 84.0938 20.2367 82.9635 18.8923C81.8685 17.5125 80.3143 16.8226 78.301 16.8226C76.4995 16.8226 74.8747 17.5302 73.4265 18.9454C72.0136 20.3251 71.1659 22.2887 70.8833 24.8359Z" fill="#212427"/>
<path d="M94.8367 39.8012V14.01H98.4396L98.8104 17.7248H98.9694C100.1 16.4865 101.336 15.4605 102.678 14.6468C104.02 13.7977 105.451 13.3732 106.97 13.3732C108.948 13.3732 110.484 13.8154 111.579 14.6999C112.71 15.549 113.54 16.7519 114.07 18.3085C115.412 16.858 116.772 15.6728 118.149 14.753C119.527 13.8331 120.993 13.3732 122.547 13.3732C125.196 13.3732 127.156 14.24 128.428 15.9735C129.735 17.6717 130.388 20.1659 130.388 23.4562V39.8012H126.044V24.0399C126.044 21.6341 125.655 19.8829 124.878 18.7862C124.101 17.6894 122.9 17.141 121.275 17.141C119.368 17.141 117.213 18.4677 114.811 21.1212V39.8012H110.467V24.0399C110.467 21.6341 110.078 19.8829 109.301 18.7862C108.524 17.6894 107.305 17.141 105.645 17.141C103.738 17.141 101.583 18.4677 99.1813 21.1212V39.8012H94.8367Z" fill="#212427"/>
<path d="M138.765 39.8012V14.01H143.11V39.8012H138.765ZM140.99 8.70319C140.143 8.70319 139.436 8.45554 138.871 7.96023C138.341 7.42955 138.076 6.72197 138.076 5.8375C138.076 4.98841 138.341 4.29852 138.871 3.76784C139.436 3.23716 140.143 2.97182 140.99 2.97182C141.838 2.97182 142.527 3.23716 143.057 3.76784C143.622 4.29852 143.905 4.98841 143.905 5.8375C143.905 6.72197 143.622 7.42955 143.057 7.96023C142.527 8.45554 141.838 8.70319 140.99 8.70319Z" fill="#212427"/>
<path d="M158.533 40.438C156.696 40.438 154.948 40.1019 153.288 39.4297C151.627 38.7221 150.179 37.873 148.943 36.8824L151.115 33.9637C152.246 34.8481 153.411 35.5911 154.612 36.1925C155.813 36.7586 157.173 37.0416 158.692 37.0416C160.387 37.0416 161.659 36.6525 162.507 35.8741C163.354 35.0604 163.778 34.1052 163.778 33.0084C163.778 32.124 163.478 31.381 162.878 30.7796C162.312 30.1781 161.571 29.6828 160.652 29.2937C159.769 28.8691 158.851 28.4799 157.897 28.1262C156.696 27.6662 155.513 27.1532 154.347 26.5872C153.182 25.9857 152.228 25.2251 151.486 24.3052C150.744 23.35 150.374 22.1471 150.374 20.6966C150.374 18.6093 151.151 16.8757 152.705 15.4959C154.294 14.0808 156.484 13.3732 159.275 13.3732C160.864 13.3732 162.348 13.6562 163.725 14.2223C165.103 14.7883 166.286 15.4782 167.275 16.2919L165.156 19.0515C164.273 18.3793 163.354 17.8309 162.401 17.4064C161.447 16.9818 160.405 16.7696 159.275 16.7696C157.65 16.7696 156.449 17.141 155.672 17.884C154.93 18.6269 154.559 19.4937 154.559 20.4843C154.559 21.298 154.824 21.9702 155.354 22.5009C155.884 22.9962 156.573 23.4385 157.42 23.8276C158.268 24.1814 159.169 24.5529 160.122 24.9421C161.359 25.402 162.577 25.9327 163.778 26.5341C164.979 27.1002 165.968 27.8785 166.745 28.8691C167.558 29.8243 167.964 31.1157 167.964 32.7431C167.964 34.1229 167.593 35.3965 166.851 36.564C166.145 37.7315 165.085 38.6691 163.672 39.3766C162.295 40.0842 160.582 40.438 158.533 40.438Z" fill="#212427"/>
<path fill-rule="evenodd" clip-rule="evenodd" d="M179.353 9.94921C178.712 9.86492 177.383 9.74681 177.412 9.96246C177.442 10.1781 179.078 10.1834 179.903 10.3476C179.927 10.3523 179.951 10.3565 179.975 10.3606C180.182 10.3961 180.373 10.4289 180.287 10.7895C180.005 11.979 179.717 13.1742 179.536 14.3808C179.483 14.7338 179.426 15.086 179.369 15.4381C179.028 17.5547 178.688 19.6618 179.157 21.8522C179.643 24.1293 179.926 26.4631 179.451 28.8082C179.219 29.9411 179.344 31.074 179.592 32.1899C179.796 33.1189 179.762 34.0422 179.621 34.9711C179.6 35.0999 179.571 35.2292 179.542 35.3584C179.477 35.6497 179.412 35.9404 179.44 36.223C179.547 37.3049 179.282 38.1772 178.412 38.8796C178.09 39.1402 177.717 39.5027 177.915 40.0238C178.118 40.5733 178.621 40.7319 179.129 40.8339C179.361 40.8792 179.632 40.9188 179.852 40.8509C181.117 40.4657 182.456 40.2164 183.309 39.0326C183.919 38.1829 184.8 37.9733 185.783 38.047C186.455 38.0979 187.082 38.3415 187.726 38.5001C188.612 38.7154 188.641 38.806 188.048 39.4744C187.618 39.9559 187.652 40.1995 188.223 40.4997C189.318 41.0831 190.465 41.1284 191.645 40.7999C192.148 40.6583 192.425 40.4034 192.363 39.7916C192.289 39.0609 192.685 38.755 193.408 38.857C194.069 38.9533 194.729 39.0382 195.396 38.9023C196.317 38.7154 196.723 38.2282 196.734 37.2936C196.736 37.2004 196.734 37.107 196.733 37.0136C196.727 36.5898 196.72 36.1674 196.938 35.7868L196.945 35.7735C197.711 34.4185 198.474 33.0682 198.429 31.4308C198.429 31.2949 198.44 31.0513 198.677 31.1419C199.773 31.5498 201.01 31.5271 202.01 32.2409C202.4 32.5184 202.592 32.8696 202.631 33.3568C202.733 34.5973 202.072 35.4583 201.293 36.2853C200.954 36.6422 200.581 37.0443 200.892 37.5768C201.197 38.0923 201.727 38.1262 202.253 38.0073C203.19 37.7977 203.964 37.2709 204.676 36.6591C205.845 35.6509 206.308 33.9119 205.789 32.4561C205.207 30.8134 204.111 29.7088 202.394 29.2727C201.49 29.0461 200.564 28.9045 199.632 28.8931C198.988 28.8818 198.813 28.6382 198.79 28.0378C198.787 27.924 198.785 27.8092 198.783 27.6941C198.783 26.661 198.235 25.9435 198.132 25.7384C197.398 24.8435 197.417 23.8933 197.11 22.6631C196.873 21.4169 196.492 20.0679 196.017 18.884C195.136 16.6805 193.43 15.1341 191.804 13.5311C191.256 12.9873 191.064 12.4039 191.047 11.6901C191.041 11.3163 191.171 11.2086 191.527 11.3672C192.069 11.6165 192.645 11.7921 193.142 12.1433C193.323 12.2736 193.6 12.4662 193.724 12.2566C193.872 12.0136 193.609 11.8921 193.42 11.8048C193.393 11.7924 193.368 11.7807 193.346 11.7694C192.798 11.4862 192.216 11.254 191.651 10.9991C191.612 10.9822 191.567 10.9697 191.522 10.9572C191.356 10.9106 191.187 10.8634 191.267 10.5912C191.34 10.325 191.442 10.0927 191.787 10.0757C192.255 10.0531 192.719 10.0474 193.182 10.1267C193.204 10.1307 193.227 10.1358 193.25 10.1408C193.388 10.1717 193.635 10.1569 193.701 10.0248C193.768 9.89268 192.769 9.78686 192.323 9.81518C191.809 9.84917 191.725 9.67357 191.871 9.20908C191.967 8.90886 192.137 8.84089 192.402 8.8239C192.835 8.79416 193.266 8.74505 193.698 8.69588C194.5 8.60457 195.302 8.5132 196.113 8.54634C196.221 8.552 196.339 8.53501 196.333 8.35941C196.128 8.17815 195.877 8.20448 195.637 8.22958C195.6 8.23349 195.562 8.2374 195.526 8.24046C194.532 8.31976 193.538 8.42738 192.544 8.50669C192.504 8.50986 192.46 8.51773 192.415 8.52577C192.218 8.56118 191.997 8.60072 191.979 8.26878C191.966 8.04939 191.944 7.83023 191.922 7.6113C191.841 6.82417 191.761 6.03969 192.154 5.25528C192.69 4.19035 192.696 3.02347 192.515 1.85659C192.374 0.933278 191.871 0.701034 191.064 1.17685C190.188 1.69232 189.471 2.38338 188.85 3.17641C188.386 3.77685 187.827 3.94112 187.093 3.81083C186.099 3.63523 185.376 3.1934 184.986 2.20778C184.715 1.51105 184.405 0.802994 183.783 0.31585C183.151 -0.182624 182.716 -0.0806651 182.241 0.548093C181.355 1.72631 181.208 3.08012 181.213 4.47358C181.213 4.90974 181.208 5.31758 180.829 5.62347C180.321 6.03131 180.129 6.59209 180.191 7.22651C180.236 7.71932 180.05 7.67967 179.705 7.52673C178.875 7.15854 178.056 6.75636 177.175 6.50713C177.132 6.49455 177.089 6.47693 177.046 6.45915C176.894 6.39678 176.736 6.33215 176.565 6.47314C176.661 6.71105 176.892 6.68839 177.068 6.7507C178.073 7.10756 179.033 7.56638 180.005 8.00821C180.287 8.13849 180.462 8.34242 180.383 8.62564C180.354 8.72675 180.314 8.76014 180.268 8.76475C180.201 8.7713 180.04 8.72171 180.04 8.72171C180.04 8.72171 179.874 8.69968 179.824 8.69361C179.265 8.62564 178.2 8.20083 178.098 8.40585C177.996 8.61087 178.355 8.69361 178.355 8.69361C178.355 8.69361 178.656 8.7638 178.694 8.77291C179.101 8.86921 179.519 8.95418 179.937 8.99949C180.411 9.05047 180.586 9.26006 180.53 9.74154C180.477 10.1886 180.364 10.1202 180.142 10.0543C180.077 10.0351 179.886 10.0129 179.829 10.0078C179.67 9.99089 179.512 9.97005 179.353 9.94921Z" fill="#212427"/>
</svg>
