<svg width="833" height="424" viewBox="0 0 833 424" fill="none" xmlns="http://www.w3.org/2000/svg">
<path fill-rule="evenodd" clip-rule="evenodd" d="M751.525 30.3717C749.566 30.1144 745.5 29.7538 745.59 30.4121C745.681 31.0705 750.685 31.0865 753.206 31.588C753.28 31.6023 753.354 31.615 753.427 31.6274C754.06 31.736 754.644 31.8361 754.381 32.9368C753.517 36.568 752.636 40.2166 752.084 43.8998C751.921 44.9774 751.748 46.0528 751.574 47.1274C750.53 53.5889 749.49 60.0211 750.927 66.7076C752.412 73.659 753.275 80.7832 751.825 87.942C751.117 91.4004 751.497 94.8587 752.257 98.2652C752.878 101.101 752.775 103.92 752.343 106.755C752.279 107.149 752.191 107.543 752.103 107.938C751.905 108.827 751.707 109.714 751.79 110.577C752.118 113.88 751.307 116.543 748.647 118.687C747.663 119.482 746.523 120.589 747.127 122.18C747.749 123.857 749.286 124.341 750.84 124.652C751.548 124.791 752.377 124.912 753.051 124.704C756.919 123.529 761.012 122.768 763.62 119.154C765.485 116.56 768.179 115.92 771.184 116.145C773.239 116.301 775.156 117.044 777.125 117.528C779.836 118.185 779.923 118.462 778.109 120.502C776.797 121.972 776.9 122.716 778.645 123.632C781.995 125.413 785.501 125.552 789.11 124.549C790.647 124.116 791.493 123.338 791.303 121.471C791.079 119.24 792.288 118.306 794.498 118.618C796.519 118.912 798.539 119.171 800.577 118.756C803.392 118.185 804.636 116.698 804.67 113.845C804.673 113.561 804.669 113.276 804.665 112.99C804.646 111.697 804.627 110.407 805.292 109.245L805.315 109.205C807.656 105.068 809.989 100.946 809.851 95.9481C809.851 95.5331 809.886 94.7895 810.611 95.0662C813.961 96.3112 817.743 96.2421 820.8 98.4208C821.992 99.2681 822.579 100.34 822.7 101.827C823.01 105.614 820.99 108.243 818.607 110.767C817.571 111.857 816.431 113.084 817.381 114.71C818.313 116.283 819.936 116.387 821.543 116.024C824.409 115.384 826.775 113.776 828.951 111.908C832.526 108.83 833.942 103.522 832.353 99.0779C830.575 94.0633 827.224 90.6914 821.974 89.3599C819.211 88.6682 816.379 88.2359 813.529 88.2013C811.561 88.1668 811.025 87.4232 810.956 85.5903C810.944 85.2427 810.938 84.8924 810.933 84.541C810.933 81.3875 809.257 79.1969 808.944 78.5711C806.699 75.839 806.756 72.9383 805.819 69.1831C805.093 65.3789 803.927 61.2607 802.477 57.6467C799.783 50.9202 794.567 46.1996 789.594 41.306C787.918 39.646 787.331 37.8649 787.279 35.6861C787.262 34.5449 787.659 34.2163 788.747 34.7005C790.405 35.4613 792.167 35.9974 793.687 37.0695C794.239 37.4672 795.085 38.0551 795.465 37.4153C795.919 36.6735 795.115 36.3028 794.537 36.0363C794.455 35.9984 794.377 35.9626 794.308 35.9282C792.633 35.0636 790.854 34.3547 789.127 33.5765C789.006 33.5252 788.87 33.487 788.733 33.4487C788.224 33.3066 787.708 33.1624 787.953 32.3315C788.178 31.5188 788.488 30.8098 789.542 30.758C790.975 30.6888 792.391 30.6715 793.807 30.9136C793.876 30.9259 793.945 30.9413 794.015 30.9567C794.439 31.0509 795.193 31.0056 795.396 30.6023C795.6 30.1991 792.547 29.8761 791.182 29.9625C789.611 30.0663 789.352 29.5302 789.801 28.1123C790.094 27.1959 790.613 26.9884 791.424 26.9365C792.747 26.8457 794.066 26.6958 795.386 26.5457C797.837 26.2669 800.289 25.988 802.77 26.0892C803.099 26.1065 803.461 26.0546 803.444 25.5185C802.817 24.9652 802.047 25.0456 801.315 25.1222C801.2 25.1341 801.086 25.1461 800.974 25.1554C797.935 25.3975 794.895 25.7261 791.856 25.9681C791.734 25.9778 791.6 26.0019 791.462 26.0264C790.859 26.1345 790.185 26.2552 790.129 25.2419C790.091 24.5722 790.023 23.9031 789.954 23.2348C789.708 20.832 789.462 18.4372 790.664 16.0426C792.305 12.7918 792.322 9.22967 791.77 5.66756C791.338 2.84899 789.801 2.14003 787.331 3.59254C784.654 5.1661 782.461 7.2757 780.562 9.69655C779.145 11.5295 777.436 12.0309 775.191 11.6332C772.151 11.0972 769.941 9.74842 768.749 6.73965C767.92 4.61275 766.97 2.45128 765.071 0.964185C763.136 -0.557492 761.807 -0.246244 760.356 1.67315C757.645 5.26985 757.196 9.40259 757.213 13.6564C757.213 14.9878 757.196 16.2329 756.039 17.1666C754.484 18.4116 753.897 20.1235 754.087 22.0602C754.225 23.5646 753.655 23.4435 752.602 22.9767C750.063 21.8527 747.559 20.625 744.865 19.8641C744.735 19.8257 744.603 19.772 744.471 19.7177C744.006 19.5273 743.524 19.33 743 19.7604C743.294 20.4866 744.002 20.4175 744.537 20.6077C747.611 21.6971 750.547 23.0977 753.517 24.4465C754.381 24.8442 754.916 25.4667 754.674 26.3313C754.586 26.6399 754.464 26.7419 754.321 26.7559C754.119 26.7759 753.626 26.6245 753.626 26.6245C753.626 26.6245 753.117 26.5573 752.965 26.5388C751.255 26.3313 748 25.0345 747.688 25.6603C747.375 26.2862 748.472 26.5388 748.472 26.5388C748.472 26.5388 749.393 26.753 749.511 26.7808C750.754 27.0748 752.032 27.3342 753.31 27.4725C754.761 27.6281 755.296 28.2679 755.123 29.7377C754.963 31.1024 754.617 30.8937 753.939 30.6926C753.74 30.6338 753.154 30.5662 752.982 30.5505C752.495 30.4989 752.01 30.4353 751.525 30.3717Z" fill="#FFD700"/>
<path d="M763.283 27.771C763.546 29.5412 764.928 32.3513 768.354 29.43" stroke="#212427" stroke-linecap="round"/>
<path d="M768.354 29.4302C769.218 30.9976 771.562 33.6149 773.755 29.6823" stroke="#212427" stroke-linecap="round"/>
<path d="M767.281 26.2656C766.688 26.2013 767.617 28.7028 768.21 28.7665C768.803 28.8302 770.839 26.6513 770.246 26.587L767.281 26.2656Z" stroke="#212427" stroke-linecap="round"/>
<path d="M762.686 17.8965C762.686 17.8965 765.669 20.8792 765.669 22.0723C765.669 23.2655 760.897 23.862 760.897 23.862" stroke="#212427" stroke-linecap="round"/>
<path d="M779.157 28.8506C779.157 28.8506 775.715 26.4121 775.515 25.236C775.314 24.0599 780.5 22.5 780.5 22.5" stroke="#212427" stroke-linecap="round"/>
<path fill-rule="evenodd" clip-rule="evenodd" d="M81.4746 328.372C83.4339 328.114 87.4998 327.754 87.4096 328.412C87.3193 329.07 82.315 329.087 79.7936 329.588C79.7204 329.602 79.6465 329.615 79.5734 329.627C78.9396 329.736 78.3561 329.836 78.6193 330.937C79.4828 334.568 80.3635 338.217 80.9161 341.9C81.0787 342.977 81.2524 344.053 81.4261 345.127C82.4701 351.589 83.5095 358.021 82.0732 364.708C80.588 371.659 79.7245 378.783 81.1752 385.942C81.8832 389.4 81.5033 392.859 80.7434 396.265C80.1217 399.101 80.2254 401.92 80.6571 404.755C80.7208 405.149 80.8089 405.543 80.8968 405.938C81.0954 406.827 81.2935 407.714 81.2097 408.577C80.8816 411.88 81.6933 414.543 84.3528 416.687C85.3372 417.482 86.477 418.589 85.8725 420.18C85.2508 421.857 83.7138 422.341 82.1596 422.652C81.4515 422.791 80.6226 422.912 79.949 422.704C76.0806 421.529 71.9877 420.768 69.38 417.154C67.5149 414.56 64.8208 413.92 61.8159 414.145C59.7608 414.301 57.8438 415.044 55.8751 415.528C53.1638 416.185 53.0774 416.462 54.8907 418.502C56.2032 419.972 56.0996 420.716 54.3554 421.632C51.0051 423.413 47.4993 423.552 43.8899 422.549C42.3529 422.116 41.5067 421.338 41.6967 419.471C41.9212 417.24 40.7123 416.306 38.5018 416.618C36.4812 416.912 34.4607 417.171 32.4229 416.756C29.6079 416.185 28.3645 414.698 28.33 411.845C28.3268 411.561 28.331 411.276 28.3353 410.99C28.3543 409.697 28.3733 408.407 27.7082 407.245L27.6853 407.205C25.3442 403.068 23.0114 398.946 23.149 393.948C23.149 393.533 23.1145 392.79 22.3892 393.066C19.0389 394.311 15.2568 394.242 12.2001 396.421C11.0084 397.268 10.4213 398.34 10.3004 399.827C9.98954 403.614 12.0101 406.243 14.3933 408.767C15.4295 409.857 16.5693 411.084 15.6195 412.71C14.6869 414.283 13.0635 414.387 11.4575 414.024C8.59068 413.384 6.22474 411.776 4.04875 409.908C0.47393 406.83 -0.942184 401.522 0.646629 397.078C2.42541 392.063 5.77573 388.691 11.0257 387.36C13.7889 386.668 16.6211 386.236 19.4706 386.201C21.4393 386.167 21.9747 385.423 22.0438 383.59C22.0555 383.243 22.0616 382.892 22.0674 382.541C22.0674 379.387 23.7435 377.197 24.056 376.571C26.3011 373.839 26.2437 370.938 27.1813 367.183C27.9067 363.379 29.0725 359.261 30.5232 355.647C33.2173 348.92 38.4327 344.2 43.4064 339.306C45.0815 337.646 45.6687 335.865 45.7205 333.686C45.7378 332.545 45.3406 332.216 44.2526 332.701C42.5947 333.461 40.8332 333.997 39.3135 335.069C38.7608 335.467 37.9146 336.055 37.5347 335.415C37.081 334.674 37.8853 334.303 38.4633 334.036C38.5455 333.998 38.623 333.963 38.6918 333.928C40.3669 333.064 42.1457 332.355 43.8727 331.577C43.9935 331.525 44.1302 331.487 44.2671 331.449C44.7759 331.307 45.2919 331.162 45.047 330.332C44.8225 329.519 44.5116 328.81 43.4582 328.758C42.0248 328.689 40.6087 328.672 39.1926 328.914C39.1242 328.926 39.0549 328.941 38.985 328.957C38.561 329.051 37.8074 329.006 37.6038 328.602C37.4002 328.199 40.4533 327.876 41.8176 327.963C43.3891 328.066 43.6482 327.53 43.1991 326.112C42.9056 325.196 42.3875 324.988 41.5758 324.936C40.2526 324.846 38.9337 324.696 37.6145 324.546C35.163 324.267 32.7109 323.988 30.2296 324.089C29.9015 324.106 29.5388 324.055 29.5561 323.519C30.1833 322.965 30.9527 323.046 31.6854 323.122C31.7999 323.134 31.9136 323.146 32.0257 323.155C35.0651 323.398 38.1046 323.726 41.1441 323.968C41.2662 323.978 41.4002 324.002 41.538 324.026C42.1407 324.134 42.8147 324.255 42.871 323.242C42.9087 322.572 42.9772 321.903 43.0458 321.235C43.2924 318.832 43.5381 316.437 42.3357 314.043C40.695 310.792 40.6778 307.23 41.2304 303.668C41.6621 300.849 43.1991 300.14 45.6687 301.593C48.3455 303.166 50.5388 305.276 52.4384 307.697C53.8545 309.529 55.5642 310.031 57.8093 309.633C60.8488 309.097 63.0593 307.748 64.2509 304.74C65.0798 302.613 66.0297 300.451 67.9293 298.964C69.8635 297.443 71.1933 297.754 72.644 299.673C75.3553 303.27 75.8043 307.403 75.787 311.656C75.787 312.988 75.8043 314.233 76.9614 315.167C78.5157 316.412 79.1028 318.124 78.9129 320.06C78.7747 321.565 79.3446 321.444 80.3981 320.977C82.9367 319.853 85.4408 318.625 88.1349 317.864C88.2653 317.826 88.3965 317.772 88.5291 317.718C88.9939 317.527 89.476 317.33 90 317.76C89.7064 318.487 88.9984 318.417 88.463 318.608C85.389 319.697 82.4531 321.098 79.4828 322.446C78.6193 322.844 78.0839 323.467 78.3257 324.331C78.4145 324.64 78.5363 324.742 78.6788 324.756C78.881 324.776 79.374 324.625 79.374 324.625C79.374 324.625 79.8827 324.557 80.0354 324.539C81.7451 324.331 84.9995 323.034 85.3121 323.66C85.6246 324.286 84.5277 324.539 84.5277 324.539C84.5277 324.539 83.6071 324.753 83.4893 324.781C82.2459 325.075 80.968 325.334 79.69 325.473C78.2393 325.628 77.704 326.268 77.8767 327.738C78.0369 329.102 78.3831 328.894 79.0614 328.693C79.2599 328.634 79.8461 328.566 80.0181 328.55C80.5046 328.499 80.9899 328.435 81.4746 328.372Z" fill="#8BC34A"/>
<path d="M69.7174 325.771C69.4544 327.541 68.0719 330.351 64.6461 327.43" stroke="#212427" stroke-linecap="round"/>
<path d="M64.6461 327.43C63.7824 328.998 61.4376 331.615 59.2455 327.682" stroke="#212427" stroke-linecap="round"/>
<path d="M65.7191 324.266C66.3122 324.201 65.3833 326.703 64.7901 326.766C64.197 326.83 62.1606 324.651 62.7537 324.587L65.7191 324.266Z" stroke="#212427" stroke-linecap="round"/>
<path d="M70.3137 315.896C70.3137 315.896 67.331 318.879 67.331 320.072C67.331 321.265 72.1034 321.862 72.1034 321.862" stroke="#212427" stroke-linecap="round"/>
<path d="M53.8427 326.851C53.8427 326.851 57.2847 324.412 57.4854 323.236C57.6861 322.06 52.5 320.5 52.5 320.5" stroke="#212427" stroke-linecap="round"/>
</svg>
