<svg width="443" height="126" viewBox="0 0 443 126" fill="none" xmlns="http://www.w3.org/2000/svg">
<path fill-rule="evenodd" clip-rule="evenodd" d="M361.525 30.3717C359.566 30.1144 355.5 29.7538 355.59 30.4121C355.681 31.0705 360.685 31.0865 363.206 31.588C363.28 31.6023 363.354 31.615 363.427 31.6274C364.06 31.736 364.644 31.8361 364.381 32.9368C363.517 36.568 362.636 40.2166 362.084 43.8998C361.921 44.9774 361.748 46.0528 361.574 47.1274C360.53 53.5889 359.49 60.0211 360.927 66.7077C362.412 73.659 363.275 80.7832 361.825 87.942C361.117 91.4004 361.497 94.8587 362.257 98.2652C362.878 101.101 362.775 103.92 362.343 106.755C362.279 107.149 362.191 107.543 362.103 107.938C361.905 108.827 361.707 109.714 361.79 110.577C362.118 113.88 361.307 116.543 358.647 118.687C357.663 119.482 356.523 120.589 357.127 122.18C357.749 123.857 359.286 124.341 360.84 124.652C361.548 124.791 362.377 124.912 363.051 124.704C366.919 123.529 371.012 122.768 373.62 119.154C375.485 116.56 378.179 115.92 381.184 116.145C383.239 116.301 385.156 117.044 387.125 117.528C389.836 118.185 389.923 118.462 388.109 120.502C386.797 121.972 386.9 122.716 388.645 123.632C391.995 125.413 395.501 125.552 399.11 124.549C400.647 124.116 401.493 123.338 401.303 121.471C401.079 119.24 402.288 118.306 404.498 118.618C406.519 118.912 408.539 119.171 410.577 118.756C413.392 118.185 414.636 116.698 414.67 113.845C414.673 113.561 414.669 113.276 414.665 112.99C414.646 111.697 414.627 110.407 415.292 109.245L415.315 109.205C417.656 105.068 419.989 100.946 419.851 95.9481C419.851 95.5331 419.886 94.7895 420.611 95.0662C423.961 96.3112 427.743 96.2421 430.8 98.4208C431.992 99.2681 432.579 100.34 432.7 101.827C433.01 105.614 430.99 108.243 428.607 110.767C427.571 111.857 426.431 113.084 427.381 114.71C428.313 116.283 429.936 116.387 431.543 116.024C434.409 115.384 436.775 113.776 438.951 111.908C442.526 108.83 443.942 103.522 442.353 99.0779C440.575 94.0633 437.224 90.6914 431.974 89.3599C429.211 88.6682 426.379 88.2359 423.529 88.2013C421.561 88.1668 421.025 87.4232 420.956 85.5903C420.944 85.2427 420.938 84.8924 420.933 84.541C420.933 81.3874 419.257 79.1969 418.944 78.5711C416.699 75.839 416.756 72.9383 415.819 69.1831C415.093 65.3789 413.927 61.2607 412.477 57.6467C409.783 50.9202 404.567 46.1996 399.594 41.306C397.918 39.646 397.331 37.8649 397.279 35.6861C397.262 34.5449 397.659 34.2163 398.747 34.7005C400.405 35.4613 402.167 35.9974 403.687 37.0695C404.239 37.4672 405.085 38.0551 405.465 37.4153C405.919 36.6735 405.115 36.3028 404.537 36.0363C404.455 35.9984 404.377 35.9626 404.308 35.9282C402.633 35.0636 400.854 34.3547 399.127 33.5765C399.006 33.5252 398.87 33.487 398.733 33.4487C398.224 33.3066 397.708 33.1624 397.953 32.3315C398.178 31.5188 398.488 30.8098 399.542 30.758C400.975 30.6888 402.391 30.6715 403.807 30.9136C403.876 30.9259 403.945 30.9413 404.015 30.9567C404.439 31.0509 405.193 31.0056 405.396 30.6023C405.6 30.1991 402.547 29.8761 401.182 29.9625C399.611 30.0663 399.352 29.5302 399.801 28.1123C400.094 27.1959 400.613 26.9884 401.424 26.9365C402.747 26.8457 404.066 26.6958 405.386 26.5457C407.837 26.2669 410.289 25.988 412.77 26.0892C413.099 26.1065 413.461 26.0546 413.444 25.5185C412.817 24.9652 412.047 25.0456 411.315 25.1222C411.2 25.1341 411.086 25.1461 410.974 25.1554C407.935 25.3975 404.895 25.7261 401.856 25.9681C401.734 25.9778 401.6 26.0019 401.462 26.0264C400.859 26.1345 400.185 26.2552 400.129 25.2419C400.091 24.5722 400.023 23.9031 399.954 23.2348C399.708 20.832 399.462 18.4372 400.664 16.0426C402.305 12.7918 402.322 9.22967 401.77 5.66756C401.338 2.84899 399.801 2.14003 397.331 3.59254C394.654 5.1661 392.461 7.2757 390.562 9.69655C389.145 11.5295 387.436 12.0309 385.191 11.6332C382.151 11.0972 379.941 9.74842 378.749 6.73965C377.92 4.61275 376.97 2.45128 375.071 0.964185C373.136 -0.557492 371.807 -0.246244 370.356 1.67315C367.645 5.26985 367.196 9.40259 367.213 13.6564C367.213 14.9878 367.196 16.2329 366.039 17.1666C364.484 18.4116 363.897 20.1235 364.087 22.0602C364.225 23.5646 363.655 23.4435 362.602 22.9767C360.063 21.8527 357.559 20.625 354.865 19.8641C354.735 19.8257 354.603 19.772 354.471 19.7177C354.006 19.5273 353.524 19.33 353 19.7604C353.294 20.4866 354.002 20.4175 354.537 20.6077C357.611 21.6971 360.547 23.0977 363.517 24.4465C364.381 24.8442 364.916 25.4667 364.674 26.3313C364.586 26.6399 364.464 26.7419 364.321 26.7559C364.119 26.7759 363.626 26.6245 363.626 26.6245C363.626 26.6245 363.117 26.5573 362.965 26.5388C361.255 26.3313 358 25.0345 357.688 25.6603C357.375 26.2862 358.472 26.5388 358.472 26.5388C358.472 26.5388 359.393 26.753 359.511 26.7808C360.754 27.0748 362.032 27.3342 363.31 27.4725C364.761 27.6281 365.296 28.2679 365.123 29.7377C364.963 31.1024 364.617 30.8937 363.939 30.6926C363.74 30.6338 363.154 30.5662 362.982 30.5505C362.495 30.4989 362.01 30.4353 361.525 30.3717Z" fill="#FFD700"/>
<path d="M373.283 27.771C373.546 29.5412 374.928 32.3513 378.354 29.43" stroke="#212427" stroke-linecap="round"/>
<path d="M378.354 29.4302C379.218 30.9976 381.562 33.6149 383.755 29.6823" stroke="#212427" stroke-linecap="round"/>
<path d="M377.281 26.2656C376.688 26.2013 377.617 28.7028 378.21 28.7665C378.803 28.8302 380.839 26.6513 380.246 26.587L377.281 26.2656Z" stroke="#212427" stroke-linecap="round"/>
<path d="M372.686 17.8965C372.686 17.8965 375.669 20.8792 375.669 22.0723C375.669 23.2655 370.897 23.862 370.897 23.862" stroke="#212427" stroke-linecap="round"/>
<path d="M389.157 28.8506C389.157 28.8506 385.715 26.4121 385.515 25.236C385.314 24.0599 390.5 22.5 390.5 22.5" stroke="#212427" stroke-linecap="round"/>
<path fill-rule="evenodd" clip-rule="evenodd" d="M81.4746 30.3717C83.4339 30.1144 87.4998 29.7538 87.4096 30.4121C87.3193 31.0705 82.315 31.0865 79.7936 31.588C79.7204 31.6023 79.6465 31.615 79.5734 31.6274C78.9396 31.736 78.3561 31.8361 78.6193 32.9368C79.4828 36.568 80.3635 40.2166 80.9161 43.8998C81.0787 44.9774 81.2524 46.0528 81.4261 47.1274C82.4701 53.5889 83.5095 60.0211 82.0732 66.7077C80.588 73.659 79.7245 80.7832 81.1752 87.942C81.8832 91.4004 81.5033 94.8587 80.7434 98.2652C80.1217 101.101 80.2254 103.92 80.6571 106.755C80.7208 107.149 80.8089 107.543 80.8968 107.938C81.0954 108.827 81.2935 109.714 81.2097 110.577C80.8816 113.88 81.6933 116.543 84.3528 118.687C85.3372 119.482 86.477 120.589 85.8725 122.18C85.2508 123.857 83.7138 124.341 82.1596 124.652C81.4515 124.791 80.6226 124.912 79.949 124.704C76.0806 123.529 71.9877 122.768 69.38 119.154C67.5149 116.56 64.8208 115.92 61.8159 116.145C59.7608 116.301 57.8438 117.044 55.8751 117.528C53.1638 118.185 53.0774 118.462 54.8907 120.502C56.2032 121.972 56.0996 122.716 54.3554 123.632C51.0051 125.413 47.4993 125.552 43.8899 124.549C42.3529 124.116 41.5067 123.338 41.6967 121.471C41.9212 119.24 40.7123 118.306 38.5018 118.618C36.4812 118.912 34.4607 119.171 32.4229 118.756C29.6079 118.185 28.3645 116.698 28.33 113.845C28.3268 113.561 28.331 113.276 28.3353 112.99C28.3543 111.697 28.3733 110.407 27.7082 109.245L27.6853 109.205C25.3442 105.068 23.0114 100.946 23.149 95.9481C23.149 95.5331 23.1145 94.7895 22.3892 95.0662C19.0389 96.3112 15.2568 96.2421 12.2001 98.4208C11.0084 99.2681 10.4213 100.34 10.3004 101.827C9.98954 105.614 12.0101 108.243 14.3933 110.767C15.4295 111.857 16.5693 113.084 15.6195 114.71C14.6869 116.283 13.0635 116.387 11.4575 116.024C8.59068 115.384 6.22474 113.776 4.04875 111.908C0.473929 108.83 -0.942185 103.522 0.646628 99.0779C2.42541 94.0633 5.77573 90.6914 11.0257 89.3599C13.7889 88.6682 16.6211 88.2359 19.4706 88.2013C21.4393 88.1668 21.9747 87.4232 22.0438 85.5903C22.0555 85.2427 22.0616 84.8924 22.0674 84.541C22.0674 81.3874 23.7435 79.1969 24.056 78.5711C26.3011 75.839 26.2437 72.9383 27.1813 69.1831C27.9067 65.3789 29.0725 61.2607 30.5232 57.6467C33.2173 50.9202 38.4327 46.1996 43.4064 41.306C45.0815 39.646 45.6687 37.8649 45.7205 35.6861C45.7378 34.5449 45.3406 34.2163 44.2526 34.7005C42.5947 35.4613 40.8332 35.9974 39.3135 37.0695C38.7608 37.4672 37.9146 38.0551 37.5347 37.4153C37.081 36.6735 37.8853 36.3028 38.4633 36.0363C38.5455 35.9984 38.623 35.9626 38.6918 35.9282C40.3669 35.0636 42.1457 34.3547 43.8727 33.5765C43.9935 33.5252 44.1302 33.487 44.2671 33.4487C44.7759 33.3066 45.2919 33.1624 45.047 32.3315C44.8225 31.5188 44.5116 30.8098 43.4582 30.758C42.0248 30.6888 40.6087 30.6715 39.1926 30.9136C39.1242 30.9259 39.0549 30.9413 38.985 30.9567C38.561 31.0509 37.8074 31.0056 37.6038 30.6023C37.4002 30.1991 40.4533 29.8761 41.8176 29.9625C43.3891 30.0663 43.6482 29.5302 43.1991 28.1123C42.9056 27.1959 42.3875 26.9884 41.5758 26.9365C40.2526 26.8457 38.9337 26.6958 37.6145 26.5457C35.163 26.2669 32.7109 25.988 30.2296 26.0892C29.9015 26.1065 29.5388 26.0546 29.5561 25.5185C30.1833 24.9652 30.9527 25.0456 31.6854 25.1222C31.7999 25.1341 31.9136 25.1461 32.0257 25.1554C35.0651 25.3975 38.1046 25.7261 41.1441 25.9681C41.2662 25.9778 41.4002 26.0019 41.538 26.0264C42.1407 26.1345 42.8147 26.2552 42.871 25.2419C42.9087 24.5722 42.9772 23.9031 43.0458 23.2348C43.2924 20.832 43.5381 18.4372 42.3357 16.0426C40.695 12.7918 40.6778 9.22967 41.2304 5.66756C41.6621 2.84899 43.1991 2.14003 45.6687 3.59254C48.3455 5.1661 50.5388 7.2757 52.4384 9.69655C53.8545 11.5295 55.5642 12.0309 57.8093 11.6332C60.8488 11.0972 63.0593 9.74842 64.2509 6.73965C65.0798 4.61275 66.0297 2.45128 67.9293 0.964185C69.8635 -0.557492 71.1933 -0.246244 72.644 1.67315C75.3553 5.26985 75.8043 9.40259 75.787 13.6564C75.787 14.9878 75.8043 16.2329 76.9614 17.1666C78.5157 18.4116 79.1028 20.1235 78.9129 22.0602C78.7747 23.5646 79.3446 23.4435 80.3981 22.9767C82.9367 21.8527 85.4408 20.625 88.1349 19.8641C88.2653 19.8257 88.3965 19.772 88.5291 19.7177C88.9939 19.5273 89.476 19.33 90 19.7604C89.7064 20.4866 88.9984 20.4175 88.463 20.6077C85.389 21.6971 82.4531 23.0977 79.4828 24.4465C78.6193 24.8442 78.0839 25.4667 78.3257 26.3313C78.4145 26.6399 78.5363 26.7419 78.6788 26.7559C78.881 26.7759 79.374 26.6245 79.374 26.6245C79.374 26.6245 79.8827 26.5573 80.0354 26.5388C81.7451 26.3313 84.9995 25.0345 85.3121 25.6603C85.6246 26.2862 84.5277 26.5388 84.5277 26.5388C84.5277 26.5388 83.6071 26.753 83.4893 26.7808C82.2459 27.0748 80.968 27.3342 79.69 27.4725C78.2393 27.6281 77.704 28.2679 77.8767 29.7377C78.0369 31.1024 78.3831 30.8937 79.0614 30.6926C79.2599 30.6338 79.8461 30.5662 80.0181 30.5505C80.5046 30.4989 80.9899 30.4353 81.4746 30.3717Z" fill="#8BC34A"/>
<path d="M69.7174 27.771C69.4544 29.5412 68.0719 32.3513 64.6461 29.43" stroke="#212427" stroke-linecap="round"/>
<path d="M64.6461 29.4302C63.7824 30.9976 61.4376 33.6149 59.2455 29.6823" stroke="#212427" stroke-linecap="round"/>
<path d="M65.7191 26.2656C66.3122 26.2013 65.3833 28.7028 64.7901 28.7665C64.197 28.8302 62.1606 26.6513 62.7537 26.587L65.7191 26.2656Z" stroke="#212427" stroke-linecap="round"/>
<path d="M70.3137 17.8965C70.3137 17.8965 67.331 20.8792 67.331 22.0723C67.331 23.2655 72.1034 23.862 72.1034 23.862" stroke="#212427" stroke-linecap="round"/>
<path d="M53.8427 28.8506C53.8427 28.8506 57.2847 26.4121 57.4854 25.236C57.6861 24.0599 52.5 22.5 52.5 22.5" stroke="#212427" stroke-linecap="round"/>
</svg>
