<svg width="691" height="65" viewBox="0 0 691 65" fill="none" xmlns="http://www.w3.org/2000/svg">
<path fill-rule="evenodd" clip-rule="evenodd" d="M137.366 25.6172C136.552 25.5103 134.863 25.3605 134.901 25.634C134.938 25.9075 137.017 25.9142 138.065 26.1225C138.095 26.1285 138.126 26.1337 138.156 26.1389C138.419 26.184 138.662 26.2256 138.553 26.6828C138.194 28.1913 137.828 29.7071 137.598 31.2371C137.531 31.6848 137.459 32.1316 137.387 32.578C136.953 35.2623 136.521 37.9344 137.118 40.7122C137.735 43.5999 138.093 46.5595 137.491 49.5335C137.197 50.9702 137.354 52.4069 137.67 53.822C137.928 55.0001 137.885 56.171 137.706 57.3491C137.68 57.5124 137.643 57.6764 137.606 57.8402C137.524 58.2096 137.442 58.5783 137.476 58.9367C137.613 60.3087 137.276 61.415 136.171 62.3057C135.762 62.6362 135.288 63.0959 135.539 63.7568C135.798 64.4536 136.436 64.6547 137.082 64.784C137.376 64.8415 137.72 64.8918 138 64.8056C139.607 64.3171 141.307 64.001 142.391 62.4997C143.166 61.4221 144.285 61.1564 145.533 61.2497C146.387 61.3144 147.183 61.6233 148.001 61.8244C149.127 62.0974 149.163 62.2123 148.41 63.06C147.865 63.6706 147.908 63.9795 148.632 64.3602C150.024 65.1001 151.481 65.1576 152.98 64.7409C153.619 64.5613 153.97 64.2381 153.891 63.4623C153.798 62.5356 154.3 62.1477 155.218 62.277C156.058 62.3991 156.897 62.5069 157.744 62.3344C158.913 62.0974 159.43 61.4796 159.444 60.2943C159.445 60.1762 159.444 60.0577 159.442 59.9393C159.434 59.4019 159.426 58.8662 159.702 58.3835L159.712 58.3666C160.684 56.6483 161.654 54.9358 161.596 52.8594C161.596 52.687 161.611 52.3781 161.912 52.4931C163.304 53.0103 164.875 52.9815 166.145 53.8867C166.64 54.2387 166.884 54.684 166.934 55.3018C167.063 56.875 166.224 57.9669 165.234 59.0157C164.803 59.4682 164.33 59.9783 164.724 60.6535C165.112 61.3072 165.786 61.3503 166.453 61.1995C167.644 60.9337 168.627 60.2656 169.531 59.4898C171.016 58.2111 171.605 56.0058 170.945 54.1596C170.206 52.0764 168.814 50.6756 166.633 50.1225C165.485 49.8352 164.308 49.6556 163.125 49.6412C162.307 49.6269 162.084 49.318 162.056 48.5565C162.051 48.4121 162.048 48.2666 162.046 48.1206V48.1206C162.046 44.5457 162.046 53.483 162.023 53.0699C161.996 52.5834 161.968 52.2925 161.9 51.8101C161.842 51.4004 161.304 48.6719 160.228 43.2148C160.138 42.7567 160.053 42.269 159.921 41.7405C159.62 40.1602 159.136 38.4494 158.533 36.948C157.414 34.1536 155.247 32.1925 153.181 30.1596C152.485 29.47 152.241 28.7301 152.22 27.825C152.212 27.3509 152.377 27.2144 152.829 27.4155C153.518 27.7316 154.25 27.9543 154.881 28.3997C155.111 28.5649 155.462 28.8091 155.62 28.5433C155.809 28.2352 155.475 28.0811 155.234 27.9704C155.2 27.9547 155.168 27.9398 155.14 27.9256C154.444 27.5664 153.705 27.2719 152.987 26.9486C152.937 26.9273 152.88 26.9114 152.823 26.8955C152.612 26.8365 152.398 26.7766 152.499 26.4314C152.593 26.0938 152.722 25.7992 153.159 25.7777C153.755 25.749 154.343 25.7418 154.931 25.8423C154.96 25.8474 154.989 25.8538 155.018 25.8602C155.194 25.8994 155.507 25.8805 155.592 25.713C155.676 25.5455 154.408 25.4113 153.841 25.4472C153.188 25.4903 153.081 25.2677 153.267 24.6786C153.389 24.2979 153.604 24.2117 153.941 24.1901C154.491 24.1524 155.039 24.0901 155.587 24.0278C156.605 23.912 157.624 23.7961 158.655 23.8381V23.8381C158.931 23.8527 158.819 23.4656 158.546 23.4254C158.384 23.4015 158.215 23.4192 158.05 23.4364C158.003 23.4414 157.955 23.4464 157.909 23.4502C156.646 23.5508 155.383 23.6873 154.121 23.7879C154.07 23.7919 154.014 23.8019 153.957 23.8121C153.707 23.857 153.427 23.9071 153.403 23.4862C153.388 23.2079 153.359 22.93 153.331 22.6524C153.228 21.6542 153.126 20.6593 153.626 19.6645C154.307 18.314 154.314 16.8343 154.085 15.3545C153.906 14.1835 153.267 13.889 152.241 14.4924C151.129 15.1461 150.218 16.0225 149.429 17.0282C148.841 17.7897 148.13 17.998 147.198 17.8328C145.935 17.6101 145.017 17.0498 144.522 15.7998C144.177 14.9163 143.783 14.0183 142.993 13.4005C142.19 12.7684 141.638 12.8977 141.035 13.6951C139.909 15.1892 139.722 16.9061 139.729 18.6732C139.729 19.2264 139.722 19.7436 139.241 20.1315C138.596 20.6487 138.352 21.3598 138.431 22.1644C138.488 22.7894 138.251 22.7391 137.814 22.5451C136.759 22.0782 135.719 21.5682 134.6 21.2521C134.545 21.2361 134.491 21.2138 134.436 21.1912V21.1912C134.077 21.0444 133.976 21.4416 134.354 21.5299C134.391 21.5387 134.428 21.5485 134.463 21.561C135.74 22.0135 136.96 22.5954 138.194 23.1557C138.553 23.3209 138.775 23.5795 138.675 23.9387C138.638 24.0669 138.587 24.1093 138.528 24.1151C138.522 24.1157 138.516 24.1159 138.51 24.1159C138.325 24.115 138.147 24.0471 137.964 24.0249V24.0249C137.254 23.9387 135.902 23.4 135.772 23.66C135.664 23.8766 135.962 23.9856 136.065 24.0159C136.193 24.0538 135.873 23.9591 136.087 24.0156C136.3 24.072 136.019 24.0066 136.132 24.0327C136.226 24.0547 136.489 24.116 136.529 24.1255C137.046 24.2476 137.577 24.3554 138.108 24.4128C138.71 24.4775 138.933 24.7433 138.861 25.3539C138.794 25.9208 138.651 25.8341 138.369 25.7505C138.286 25.7261 138.043 25.698 137.971 25.6915C137.769 25.6701 137.568 25.6437 137.366 25.6172Z" fill="#00BFFF"/>
<path fill-rule="evenodd" clip-rule="evenodd" d="M73.5417 12.6172C72.7277 12.5103 71.0387 12.3605 71.0761 12.634C71.1136 12.9075 73.1926 12.9142 74.24 13.1225C74.2704 13.1285 74.3011 13.1337 74.3315 13.1389C74.5948 13.184 74.8372 13.2256 74.7279 13.6828C74.3691 15.1913 74.0033 16.7071 73.7737 18.2371C73.7062 18.6848 73.634 19.1316 73.5618 19.578C73.1281 22.2623 72.6963 24.9344 73.293 27.7122C73.91 30.5999 74.2687 33.5595 73.6661 36.5335C73.3719 37.9702 73.5298 39.4069 73.8454 40.822C74.1037 42.0001 74.0606 43.171 73.8813 44.3491C73.8548 44.5124 73.8182 44.6764 73.7817 44.8402C73.6992 45.2096 73.6169 45.5783 73.6517 45.9367C73.788 47.3087 73.4508 48.415 72.346 49.3057C71.9371 49.6362 71.4636 50.0959 71.7147 50.7568C71.9729 51.4536 72.6114 51.6547 73.2571 51.784C73.5513 51.8415 73.8956 51.8918 74.1754 51.8056C75.7825 51.3171 77.4828 51.001 78.5661 49.4997C79.3409 48.4221 80.4601 48.1564 81.7084 48.2497C82.5622 48.3144 83.3585 48.6233 84.1764 48.8244C85.3028 49.0974 85.3386 49.2123 84.5853 50.06C84.0401 50.6706 84.0831 50.9795 84.8077 51.3602C86.1996 52.1001 87.6559 52.1576 89.1554 51.7409C89.7939 51.5613 90.1454 51.2381 90.0665 50.4623C89.9732 49.5356 90.4754 49.1477 91.3937 49.277C92.2331 49.3991 93.0725 49.5069 93.9191 49.3344C95.0885 49.0974 95.6051 48.4796 95.6194 47.2943C95.6207 47.1762 95.619 47.0577 95.6172 46.9393C95.6093 46.4019 95.6014 45.8662 95.8777 45.3835L95.8872 45.3666C96.8598 43.6483 97.8289 41.9358 97.7717 39.8594C97.7717 39.687 97.786 39.3781 98.0874 39.4931C99.4792 40.0103 101.05 39.9815 102.32 40.8867C102.815 41.2387 103.059 41.684 103.109 42.3018C103.239 43.875 102.399 44.9669 101.409 46.0157C100.979 46.4682 100.505 46.9783 100.9 47.6535C101.287 48.3072 101.961 48.3503 102.629 48.1995C103.82 47.9337 104.803 47.2656 105.706 46.4898C107.192 45.2111 107.78 43.0058 107.12 41.1596C106.381 39.0764 104.989 37.6756 102.808 37.1225C101.66 36.8352 100.484 36.6556 99.2998 36.6412C98.4819 36.6269 98.2595 36.318 98.2309 35.5565C98.226 35.4121 98.2235 35.2666 98.221 35.1206V35.1206C98.221 31.5457 98.221 40.483 98.1982 40.0699C98.1714 39.5834 98.143 39.2925 98.0752 38.8101C98.0176 38.4004 97.4795 35.6719 96.4034 30.2148C96.313 29.7567 96.2285 29.269 96.0966 28.7405C95.7952 27.1602 95.3109 25.4494 94.7083 23.948C93.5891 21.1536 91.4224 19.1925 89.3562 17.1596C88.6603 16.47 88.4164 15.7301 88.3949 14.825C88.3877 14.3509 88.5527 14.2144 89.0047 14.4155C89.6934 14.7316 90.4252 14.9543 91.0566 15.3997C91.2861 15.5649 91.6377 15.8091 91.7955 15.5433C91.984 15.2352 91.6499 15.0811 91.4097 14.9704C91.3756 14.9547 91.3434 14.9398 91.3148 14.9256C90.6189 14.5664 89.88 14.2719 89.1625 13.9486C89.1123 13.9273 89.0556 13.9114 88.9987 13.8955C88.7873 13.8365 88.573 13.7766 88.6747 13.4314C88.768 13.0938 88.8971 12.7992 89.3347 12.7777C89.9302 12.749 90.5185 12.7418 91.1068 12.8423C91.1352 12.8474 91.164 12.8538 91.193 12.8602C91.3691 12.8994 91.6822 12.8805 91.7668 12.713C91.8514 12.5455 90.5831 12.4113 90.0163 12.4472C89.3634 12.4903 89.2558 12.2677 89.4423 11.6786C89.5643 11.2979 89.7795 11.2117 90.1167 11.1901C90.6664 11.1524 91.2143 11.0901 91.7624 11.0278C92.7808 10.912 93.7994 10.7961 94.8302 10.8381V10.8381C95.1061 10.8527 94.9946 10.4656 94.7213 10.4254C94.5594 10.4015 94.3902 10.4192 94.2254 10.4364C94.1779 10.4414 94.1307 10.4464 94.0841 10.4502C92.8214 10.5508 91.5588 10.6873 90.2961 10.7879C90.2454 10.7919 90.1897 10.8019 90.1324 10.8121C89.8821 10.857 89.602 10.9071 89.5786 10.4862C89.563 10.2079 89.5345 9.93001 89.506 9.65237C89.4036 8.65415 89.3015 7.65931 89.8011 6.66454C90.4826 5.31405 90.4898 3.83425 90.2602 2.35445C90.0809 1.18355 89.4423 0.889023 88.4164 1.49244C87.3044 2.14613 86.3933 3.02252 85.6041 4.02821C85.0158 4.78965 84.3055 4.99798 83.3729 4.83275C82.1102 4.61007 81.1919 4.04975 80.6969 2.79983C80.3525 1.91626 79.9579 1.01832 79.1688 0.400545C78.3652 -0.231601 77.8128 -0.1023 77.2102 0.695068C76.0838 2.18923 75.8973 3.90609 75.9044 5.67322C75.9044 6.22635 75.8973 6.74356 75.4166 7.13147C74.7709 7.64868 74.527 8.35984 74.6059 9.1644C74.6633 9.78936 74.4265 9.73907 73.9889 9.54512C72.9343 9.0782 71.894 8.56817 70.7748 8.2521C70.7207 8.23615 70.6661 8.21381 70.611 8.19125V8.19125C70.2525 8.04436 70.1515 8.44161 70.5288 8.5299C70.5665 8.53873 70.6034 8.54851 70.6385 8.56098C71.9155 9.01354 73.1352 9.59541 74.3691 10.1557C74.7279 10.3209 74.9503 10.5795 74.8498 10.9387C74.8129 11.0669 74.7623 11.1093 74.7031 11.1151C74.6976 11.1157 74.6916 11.1159 74.6852 11.1159C74.5008 11.115 74.3226 11.0471 74.1396 11.0249V11.0249C73.4293 10.9387 72.0773 10.4 71.9475 10.66C71.8393 10.8766 72.1376 10.9856 72.2401 11.0159C72.3681 11.0538 72.0482 10.9591 72.2618 11.0156C72.4754 11.072 72.1945 11.0066 72.3069 11.0327C72.4012 11.0547 72.6647 11.116 72.7047 11.1255C73.2213 11.2476 73.7522 11.3554 74.2831 11.4128C74.8857 11.4775 75.1081 11.7433 75.0364 12.3539C74.9698 12.9208 74.826 12.8341 74.5442 12.7505C74.4617 12.7261 74.2182 12.698 74.1467 12.6915C73.9446 12.6701 73.743 12.6437 73.5417 12.6172Z" fill="#FFD700"/>
<path fill-rule="evenodd" clip-rule="evenodd" d="M3.54166 25.6172C2.72774 25.5103 1.03867 25.3605 1.07614 25.634C1.11361 25.9075 3.19256 25.9142 4.24001 26.1225C4.27043 26.1285 4.30113 26.1337 4.33148 26.1389C4.59478 26.184 4.8372 26.2256 4.72786 26.6828C4.36915 28.1913 4.00326 29.7071 3.77368 31.2371C3.70617 31.6848 3.634 32.1316 3.56182 32.578C3.12814 35.2623 2.69631 37.9344 3.293 40.7122C3.90999 43.5999 4.26871 46.5595 3.66606 49.5335C3.37192 50.9702 3.52975 52.4069 3.84542 53.822C4.1037 55.0001 4.06065 56.171 3.88129 57.3491C3.85482 57.5124 3.81823 57.6764 3.78171 57.8402C3.69921 58.2096 3.61692 58.5783 3.65171 58.9367C3.78803 60.3087 3.45083 61.415 2.34599 62.3057C1.93706 62.6362 1.46356 63.0959 1.71466 63.7568C1.97293 64.4536 2.61144 64.6547 3.25713 64.784C3.55128 64.8415 3.89564 64.8918 4.17544 64.8056C5.78248 64.3171 7.48279 64.001 8.56611 62.4997C9.34093 61.4221 10.4601 61.1564 11.7084 61.2497C12.5622 61.3144 13.3585 61.6233 14.1764 61.8244C15.3028 62.0974 15.3386 62.2123 14.5853 63.06C14.0401 63.6706 14.0831 63.9795 14.8077 64.3602C16.1996 65.1001 17.6559 65.1576 19.1554 64.7409C19.7939 64.5613 20.1454 64.2381 20.0665 63.4623C19.9732 62.5356 20.4754 62.1477 21.3937 62.277C22.2331 62.3991 23.0725 62.5069 23.9191 62.3344C25.0885 62.0974 25.6051 61.4796 25.6194 60.2943C25.6207 60.1762 25.619 60.0577 25.6172 59.9393C25.6093 59.4019 25.6014 58.8662 25.8777 58.3835L25.8872 58.3666C26.8598 56.6483 27.8289 54.9358 27.7717 52.8594C27.7717 52.687 27.786 52.3781 28.0874 52.4931C29.4792 53.0103 31.0503 52.9815 32.3202 53.8867C32.8152 54.2387 33.0591 54.684 33.1094 55.3018C33.2385 56.875 32.3991 57.9669 31.4091 59.0157C30.9786 59.4682 30.5051 59.9783 30.8997 60.6535C31.2871 61.3072 31.9615 61.3503 32.6287 61.1995C33.8196 60.9337 34.8025 60.2656 35.7065 59.4898C37.1915 58.2111 37.7798 56.0058 37.1198 54.1596C36.3808 52.0764 34.989 50.6756 32.8081 50.1225C31.6602 49.8352 30.4836 49.6556 29.2998 49.6412C28.4819 49.6269 28.2595 49.318 28.2309 48.5565C28.226 48.4121 28.2235 48.2666 28.221 48.1206V48.1206C28.221 44.5457 28.221 53.483 28.1982 53.0699C28.1714 52.5834 28.143 52.2925 28.0752 51.8101C28.0176 51.4004 27.4795 48.6719 26.4034 43.2148C26.313 42.7567 26.2285 42.269 26.0966 41.7405C25.7952 40.1602 25.3109 38.4494 24.7083 36.948C23.5891 34.1536 21.4224 32.1925 19.3562 30.1596C18.6603 29.47 18.4164 28.7301 18.3949 27.825C18.3877 27.3509 18.5527 27.2144 19.0047 27.4155C19.6934 27.7316 20.4252 27.9543 21.0566 28.3997C21.2861 28.5649 21.6377 28.8091 21.7955 28.5433C21.984 28.2352 21.6499 28.0811 21.4097 27.9704C21.3756 27.9547 21.3434 27.9398 21.3148 27.9256C20.6189 27.5664 19.88 27.2719 19.1625 26.9486C19.1123 26.9273 19.0556 26.9114 18.9987 26.8955C18.7873 26.8365 18.573 26.7766 18.6747 26.4314C18.768 26.0938 18.8971 25.7992 19.3347 25.7777C19.9302 25.749 20.5185 25.7418 21.1068 25.8423C21.1352 25.8474 21.164 25.8538 21.193 25.8602C21.3691 25.8994 21.6822 25.8805 21.7668 25.713C21.8514 25.5455 20.5831 25.4113 20.0163 25.4472C19.3634 25.4903 19.2558 25.2677 19.4423 24.6786C19.5643 24.2979 19.7795 24.2117 20.1167 24.1901C20.6664 24.1524 21.2143 24.0901 21.7624 24.0278C22.7808 23.912 23.7994 23.7961 24.8302 23.8381V23.8381C25.1061 23.8527 24.9946 23.4656 24.7213 23.4254C24.5594 23.4015 24.3902 23.4192 24.2254 23.4364C24.1779 23.4414 24.1307 23.4464 24.0841 23.4502C22.8214 23.5508 21.5588 23.6873 20.2961 23.7879C20.2454 23.7919 20.1897 23.8019 20.1324 23.8121C19.8821 23.857 19.602 23.9071 19.5786 23.4862C19.563 23.2079 19.5345 22.93 19.506 22.6524C19.4036 21.6542 19.3015 20.6593 19.8011 19.6645C20.4826 18.314 20.4898 16.8343 20.2602 15.3545C20.0809 14.1835 19.4423 13.889 18.4164 14.4924C17.3044 15.1461 16.3933 16.0225 15.6041 17.0282C15.0158 17.7897 14.3055 17.998 13.3729 17.8328C12.1102 17.6101 11.1919 17.0498 10.6969 15.7998C10.3525 14.9163 9.95792 14.0183 9.16875 13.4005C8.36523 12.7684 7.81281 12.8977 7.21017 13.6951C6.0838 15.1892 5.89727 16.9061 5.90445 18.6732C5.90445 19.2264 5.89727 19.7436 5.41659 20.1315C4.77091 20.6487 4.52698 21.3598 4.6059 22.1644C4.66329 22.7894 4.42654 22.7391 3.98891 22.5451C2.93429 22.0782 1.89401 21.5682 0.774824 21.2521C0.720657 21.2361 0.666132 21.2138 0.611034 21.1912V21.1912C0.252465 21.0444 0.151531 21.4416 0.528828 21.5299C0.566536 21.5387 0.603417 21.5485 0.638512 21.561C1.91553 22.0135 3.13517 22.5954 4.36915 23.1557C4.72786 23.3209 4.95026 23.5795 4.84982 23.9387C4.81294 24.0669 4.76232 24.1093 4.70315 24.1151C4.69764 24.1157 4.69161 24.1159 4.68516 24.1159C4.50076 24.115 4.32263 24.0471 4.13957 24.0249V24.0249C3.42931 23.9387 2.07733 23.4 1.9475 23.66C1.83931 23.8766 2.13764 23.9856 2.24014 24.0159C2.36812 24.0538 2.04817 23.9591 2.2618 24.0156C2.47544 24.072 2.19451 24.0066 2.30688 24.0327C2.40125 24.0547 2.66467 24.116 2.70471 24.1255C3.22126 24.2476 3.75216 24.3554 4.28305 24.4128C4.8857 24.4775 5.1081 24.7433 5.03635 25.3539C4.96978 25.9208 4.82599 25.8341 4.54418 25.7505C4.46175 25.7261 4.2182 25.698 4.14674 25.6915C3.94464 25.6701 3.74304 25.6437 3.54166 25.6172Z" fill="#8BC34A"/>
<path fill-rule="evenodd" clip-rule="evenodd" d="M656.366 25.6172C655.552 25.5103 653.863 25.3605 653.901 25.634C653.938 25.9075 656.017 25.9142 657.065 26.1225C657.095 26.1285 657.126 26.1337 657.156 26.1389C657.419 26.184 657.662 26.2256 657.553 26.6828C657.194 28.1913 656.828 29.7071 656.598 31.2371C656.531 31.6848 656.459 32.1316 656.387 32.578C655.953 35.2623 655.521 37.9344 656.118 40.7122C656.735 43.5999 657.093 46.5595 656.491 49.5335C656.197 50.9702 656.354 52.4069 656.67 53.822C656.928 55.0001 656.885 56.171 656.706 57.3491C656.68 57.5124 656.643 57.6764 656.606 57.8402C656.524 58.2096 656.442 58.5783 656.476 58.9367C656.613 60.3087 656.276 61.415 655.171 62.3057C654.762 62.6362 654.288 63.0959 654.539 63.7568C654.798 64.4536 655.436 64.6547 656.082 64.784C656.376 64.8415 656.72 64.8918 657 64.8056C658.607 64.3171 660.307 64.001 661.391 62.4997C662.166 61.4221 663.285 61.1564 664.533 61.2497C665.387 61.3144 666.183 61.6233 667.001 61.8244C668.127 62.0974 668.163 62.2123 667.41 63.06C666.865 63.6706 666.908 63.9795 667.632 64.3602C669.024 65.1001 670.481 65.1576 671.98 64.7409C672.619 64.5613 672.97 64.2381 672.891 63.4623C672.798 62.5356 673.3 62.1477 674.218 62.277C675.058 62.3991 675.897 62.5069 676.744 62.3344C677.913 62.0974 678.43 61.4796 678.444 60.2943C678.445 60.1762 678.444 60.0577 678.442 59.9393C678.434 59.4019 678.426 58.8662 678.702 58.3835L678.712 58.3666C679.684 56.6483 680.654 54.9358 680.596 52.8594C680.596 52.687 680.611 52.3781 680.912 52.4931C682.304 53.0103 683.875 52.9815 685.145 53.8867C685.64 54.2387 685.884 54.684 685.934 55.3018C686.063 56.875 685.224 57.9669 684.234 59.0157C683.803 59.4682 683.33 59.9783 683.724 60.6535C684.112 61.3072 684.786 61.3503 685.453 61.1995C686.644 60.9337 687.627 60.2656 688.531 59.4898C690.016 58.2111 690.605 56.0058 689.945 54.1596C689.206 52.0764 687.814 50.6756 685.633 50.1225C684.485 49.8352 683.308 49.6556 682.125 49.6412C681.307 49.6269 681.084 49.318 681.056 48.5565C681.051 48.4121 681.048 48.2666 681.046 48.1206V48.1206C681.046 44.5457 681.046 53.483 681.023 53.0699C680.996 52.5834 680.968 52.2925 680.9 51.8101C680.842 51.4004 680.304 48.6719 679.228 43.2148C679.138 42.7567 679.053 42.269 678.921 41.7405C678.62 40.1602 678.136 38.4494 677.533 36.948C676.414 34.1536 674.247 32.1925 672.181 30.1596C671.485 29.47 671.241 28.7301 671.22 27.825C671.212 27.3509 671.377 27.2144 671.829 27.4155C672.518 27.7316 673.25 27.9543 673.881 28.3997C674.111 28.5649 674.462 28.8091 674.62 28.5433C674.809 28.2352 674.475 28.0811 674.234 27.9704C674.2 27.9547 674.168 27.9398 674.14 27.9256C673.444 27.5664 672.705 27.2719 671.987 26.9486C671.937 26.9273 671.88 26.9114 671.823 26.8955C671.612 26.8365 671.398 26.7766 671.499 26.4314C671.593 26.0938 671.722 25.7992 672.159 25.7777C672.755 25.749 673.343 25.7418 673.931 25.8423C673.96 25.8474 673.989 25.8538 674.018 25.8602C674.194 25.8994 674.507 25.8805 674.592 25.713C674.676 25.5455 673.408 25.4113 672.841 25.4472C672.188 25.4903 672.081 25.2677 672.267 24.6786C672.389 24.2979 672.604 24.2117 672.941 24.1901C673.491 24.1524 674.039 24.0901 674.587 24.0278C675.605 23.912 676.624 23.7961 677.655 23.8381V23.8381C677.931 23.8527 677.819 23.4656 677.546 23.4254C677.384 23.4015 677.215 23.4192 677.05 23.4364C677.003 23.4414 676.955 23.4464 676.909 23.4502C675.646 23.5508 674.383 23.6873 673.121 23.7879C673.07 23.7919 673.014 23.8019 672.957 23.8121C672.707 23.857 672.427 23.9071 672.403 23.4862C672.388 23.2079 672.359 22.93 672.331 22.6524C672.228 21.6542 672.126 20.6593 672.626 19.6645C673.307 18.314 673.314 16.8343 673.085 15.3545C672.906 14.1835 672.267 13.889 671.241 14.4924C670.129 15.1461 669.218 16.0225 668.429 17.0282C667.841 17.7897 667.13 17.998 666.198 17.8328C664.935 17.6101 664.017 17.0498 663.522 15.7998C663.177 14.9163 662.783 14.0183 661.993 13.4005C661.19 12.7684 660.638 12.8977 660.035 13.6951C658.909 15.1892 658.722 16.9061 658.729 18.6732C658.729 19.2264 658.722 19.7436 658.241 20.1315C657.596 20.6487 657.352 21.3598 657.431 22.1644C657.488 22.7894 657.251 22.7391 656.814 22.5451C655.759 22.0782 654.719 21.5682 653.6 21.2521C653.545 21.2361 653.491 21.2138 653.436 21.1912V21.1912C653.077 21.0444 652.976 21.4416 653.354 21.5299C653.391 21.5387 653.428 21.5485 653.463 21.561C654.74 22.0135 655.96 22.5954 657.194 23.1557C657.553 23.3209 657.775 23.5795 657.675 23.9387C657.638 24.0669 657.587 24.1093 657.528 24.1151C657.522 24.1157 657.516 24.1159 657.51 24.1159C657.325 24.115 657.147 24.0471 656.964 24.0249V24.0249C656.254 23.9387 654.902 23.4 654.772 23.66C654.664 23.8766 654.962 23.9856 655.065 24.0159C655.193 24.0538 654.873 23.9591 655.087 24.0156C655.3 24.072 655.019 24.0066 655.132 24.0327C655.226 24.0547 655.489 24.116 655.529 24.1255C656.046 24.2476 656.577 24.3554 657.108 24.4128C657.71 24.4775 657.933 24.7433 657.861 25.3539C657.794 25.9208 657.651 25.8341 657.369 25.7505C657.286 25.7261 657.043 25.698 656.971 25.6915C656.769 25.6701 656.568 25.6437 656.366 25.6172Z" fill="#8BC34A"/>
<path fill-rule="evenodd" clip-rule="evenodd" d="M592.542 12.6172C591.728 12.5103 590.039 12.3605 590.076 12.634C590.114 12.9075 592.193 12.9142 593.24 13.1225C593.27 13.1285 593.301 13.1337 593.331 13.1389C593.595 13.184 593.837 13.2256 593.728 13.6828C593.369 15.1913 593.003 16.7071 592.774 18.2371C592.706 18.6848 592.634 19.1316 592.562 19.578C592.128 22.2623 591.696 24.9344 592.293 27.7122C592.91 30.5999 593.269 33.5595 592.666 36.5335C592.372 37.9702 592.53 39.4069 592.845 40.822C593.104 42.0001 593.061 43.171 592.881 44.3491C592.855 44.5124 592.818 44.6764 592.782 44.8402C592.699 45.2096 592.617 45.5783 592.652 45.9367C592.788 47.3087 592.451 48.415 591.346 49.3057C590.937 49.6362 590.464 50.0959 590.715 50.7568C590.973 51.4536 591.611 51.6547 592.257 51.784C592.551 51.8415 592.896 51.8918 593.175 51.8056C594.782 51.3171 596.483 51.001 597.566 49.4997C598.341 48.4221 599.46 48.1564 600.708 48.2497C601.562 48.3144 602.359 48.6233 603.176 48.8244C604.303 49.0974 604.339 49.2123 603.585 50.06C603.04 50.6706 603.083 50.9795 603.808 51.3602C605.2 52.1001 606.656 52.1576 608.155 51.7409C608.794 51.5613 609.145 51.2381 609.066 50.4623C608.973 49.5356 609.475 49.1477 610.394 49.277C611.233 49.3991 612.073 49.5069 612.919 49.3344C614.089 49.0974 614.605 48.4796 614.619 47.2943C614.621 47.1762 614.619 47.0577 614.617 46.9393C614.609 46.4019 614.601 45.8662 614.878 45.3835L614.887 45.3666C615.86 43.6483 616.829 41.9358 616.772 39.8594C616.772 39.687 616.786 39.3781 617.087 39.4931C618.479 40.0103 620.05 39.9815 621.32 40.8867C621.815 41.2387 622.059 41.684 622.109 42.3018C622.239 43.875 621.399 44.9669 620.409 46.0157C619.979 46.4682 619.505 46.9783 619.9 47.6535C620.287 48.3072 620.961 48.3503 621.629 48.1995C622.82 47.9337 623.803 47.2656 624.706 46.4898C626.192 45.2111 626.78 43.0058 626.12 41.1596C625.381 39.0764 623.989 37.6756 621.808 37.1225C620.66 36.8352 619.484 36.6556 618.3 36.6412C617.482 36.6269 617.26 36.318 617.231 35.5565C617.226 35.4121 617.223 35.2666 617.221 35.1206V35.1206C617.221 31.5457 617.221 40.483 617.198 40.0699C617.171 39.5834 617.143 39.2925 617.075 38.8101C617.018 38.4004 616.48 35.6719 615.403 30.2148C615.313 29.7567 615.229 29.269 615.097 28.7405C614.795 27.1602 614.311 25.4494 613.708 23.948C612.589 21.1536 610.422 19.1925 608.356 17.1596C607.66 16.47 607.416 15.7301 607.395 14.825C607.388 14.3509 607.553 14.2144 608.005 14.4155C608.693 14.7316 609.425 14.9543 610.057 15.3997C610.286 15.5649 610.638 15.8091 610.796 15.5433C610.984 15.2352 610.65 15.0811 610.41 14.9704C610.376 14.9547 610.343 14.9398 610.315 14.9256C609.619 14.5664 608.88 14.2719 608.163 13.9486C608.112 13.9273 608.056 13.9114 607.999 13.8955C607.787 13.8365 607.573 13.7766 607.675 13.4314C607.768 13.0938 607.897 12.7992 608.335 12.7777C608.93 12.749 609.518 12.7418 610.107 12.8423C610.135 12.8474 610.164 12.8538 610.193 12.8602C610.369 12.8994 610.682 12.8805 610.767 12.713C610.851 12.5455 609.583 12.4113 609.016 12.4472C608.363 12.4903 608.256 12.2677 608.442 11.6786C608.564 11.2979 608.78 11.2117 609.117 11.1901C609.666 11.1524 610.214 11.0901 610.762 11.0278C611.781 10.912 612.799 10.7961 613.83 10.8381V10.8381C614.106 10.8527 613.995 10.4656 613.721 10.4254C613.559 10.4015 613.39 10.4192 613.225 10.4364C613.178 10.4414 613.131 10.4464 613.084 10.4502C611.821 10.5508 610.559 10.6873 609.296 10.7879C609.245 10.7919 609.19 10.8019 609.132 10.8121C608.882 10.857 608.602 10.9071 608.579 10.4862C608.563 10.2079 608.535 9.93001 608.506 9.65237C608.404 8.65415 608.302 7.65931 608.801 6.66454C609.483 5.31405 609.49 3.83425 609.26 2.35445C609.081 1.18355 608.442 0.889023 607.416 1.49244C606.304 2.14613 605.393 3.02252 604.604 4.02821C604.016 4.78965 603.306 4.99798 602.373 4.83275C601.11 4.61007 600.192 4.04975 599.697 2.79983C599.353 1.91626 598.958 1.01832 598.169 0.400545C597.365 -0.231601 596.813 -0.1023 596.21 0.695068C595.084 2.18923 594.897 3.90609 594.904 5.67322C594.904 6.22635 594.897 6.74356 594.417 7.13147C593.771 7.64868 593.527 8.35984 593.606 9.1644C593.663 9.78936 593.427 9.73907 592.989 9.54512C591.934 9.0782 590.894 8.56817 589.775 8.2521C589.721 8.23615 589.666 8.21381 589.611 8.19125V8.19125C589.252 8.04436 589.152 8.44161 589.529 8.5299C589.567 8.53873 589.603 8.54851 589.639 8.56098C590.916 9.01354 592.135 9.59541 593.369 10.1557C593.728 10.3209 593.95 10.5795 593.85 10.9387C593.813 11.0669 593.762 11.1093 593.703 11.1151C593.698 11.1157 593.692 11.1159 593.685 11.1159C593.501 11.115 593.323 11.0471 593.14 11.0249V11.0249C592.429 10.9387 591.077 10.4 590.947 10.66C590.839 10.8766 591.138 10.9856 591.24 11.0159C591.368 11.0538 591.048 10.9591 591.262 11.0156C591.475 11.072 591.195 11.0066 591.307 11.0327C591.401 11.0547 591.665 11.116 591.705 11.1255C592.221 11.2476 592.752 11.3554 593.283 11.4128C593.886 11.4775 594.108 11.7433 594.036 12.3539C593.97 12.9208 593.826 12.8341 593.544 12.7505C593.462 12.7261 593.218 12.698 593.147 12.6915C592.945 12.6701 592.743 12.6437 592.542 12.6172Z" fill="#FFD700"/>
<path fill-rule="evenodd" clip-rule="evenodd" d="M522.542 25.6172C521.728 25.5103 520.039 25.3605 520.076 25.634C520.114 25.9075 522.193 25.9142 523.24 26.1225C523.27 26.1285 523.301 26.1337 523.331 26.1389C523.595 26.184 523.837 26.2256 523.728 26.6828C523.369 28.1913 523.003 29.7071 522.774 31.2371C522.706 31.6848 522.634 32.1316 522.562 32.578C522.128 35.2623 521.696 37.9344 522.293 40.7122C522.91 43.5999 523.269 46.5595 522.666 49.5335C522.372 50.9702 522.53 52.4069 522.845 53.822C523.104 55.0001 523.061 56.171 522.881 57.3491C522.855 57.5124 522.818 57.6764 522.782 57.8402C522.699 58.2096 522.617 58.5783 522.652 58.9367C522.788 60.3087 522.451 61.415 521.346 62.3057C520.937 62.6362 520.464 63.0959 520.715 63.7568C520.973 64.4536 521.611 64.6547 522.257 64.784C522.551 64.8415 522.896 64.8918 523.175 64.8056C524.782 64.3171 526.483 64.001 527.566 62.4997C528.341 61.4221 529.46 61.1564 530.708 61.2497C531.562 61.3144 532.359 61.6233 533.176 61.8244C534.303 62.0974 534.339 62.2123 533.585 63.06C533.04 63.6706 533.083 63.9795 533.808 64.3602C535.2 65.1001 536.656 65.1576 538.155 64.7409C538.794 64.5613 539.145 64.2381 539.066 63.4623C538.973 62.5356 539.475 62.1477 540.394 62.277C541.233 62.3991 542.073 62.5069 542.919 62.3344C544.089 62.0974 544.605 61.4796 544.619 60.2943C544.621 60.1762 544.619 60.0577 544.617 59.9393C544.609 59.4019 544.601 58.8662 544.878 58.3835L544.887 58.3666C545.86 56.6483 546.829 54.9358 546.772 52.8594C546.772 52.687 546.786 52.3781 547.087 52.4931C548.479 53.0103 550.05 52.9815 551.32 53.8867C551.815 54.2387 552.059 54.684 552.109 55.3018C552.239 56.875 551.399 57.9669 550.409 59.0157C549.979 59.4682 549.505 59.9783 549.9 60.6535C550.287 61.3072 550.961 61.3503 551.629 61.1995C552.82 60.9337 553.803 60.2656 554.706 59.4898C556.192 58.2111 556.78 56.0058 556.12 54.1596C555.381 52.0764 553.989 50.6756 551.808 50.1225C550.66 49.8352 549.484 49.6556 548.3 49.6412C547.482 49.6269 547.26 49.318 547.231 48.5565C547.226 48.4121 547.223 48.2666 547.221 48.1206V48.1206C547.221 44.5457 547.221 53.483 547.198 53.0699C547.171 52.5834 547.143 52.2925 547.075 51.8101C547.018 51.4004 546.48 48.6719 545.403 43.2148C545.313 42.7567 545.229 42.269 545.097 41.7405C544.795 40.1602 544.311 38.4494 543.708 36.948C542.589 34.1536 540.422 32.1925 538.356 30.1596C537.66 29.47 537.416 28.7301 537.395 27.825C537.388 27.3509 537.553 27.2144 538.005 27.4155C538.693 27.7316 539.425 27.9543 540.057 28.3997C540.286 28.5649 540.638 28.8091 540.796 28.5433C540.984 28.2352 540.65 28.0811 540.41 27.9704C540.376 27.9547 540.343 27.9398 540.315 27.9256C539.619 27.5664 538.88 27.2719 538.163 26.9486C538.112 26.9273 538.056 26.9114 537.999 26.8955C537.787 26.8365 537.573 26.7766 537.675 26.4314C537.768 26.0938 537.897 25.7992 538.335 25.7777C538.93 25.749 539.518 25.7418 540.107 25.8423C540.135 25.8474 540.164 25.8538 540.193 25.8602C540.369 25.8994 540.682 25.8805 540.767 25.713C540.851 25.5455 539.583 25.4113 539.016 25.4472C538.363 25.4903 538.256 25.2677 538.442 24.6786C538.564 24.2979 538.78 24.2117 539.117 24.1901C539.666 24.1524 540.214 24.0901 540.762 24.0278C541.781 23.912 542.799 23.7961 543.83 23.8381V23.8381C544.106 23.8527 543.995 23.4656 543.721 23.4254C543.559 23.4015 543.39 23.4192 543.225 23.4364C543.178 23.4414 543.131 23.4464 543.084 23.4502C541.821 23.5508 540.559 23.6873 539.296 23.7879C539.245 23.7919 539.19 23.8019 539.132 23.8121C538.882 23.857 538.602 23.9071 538.579 23.4862C538.563 23.2079 538.535 22.93 538.506 22.6524C538.404 21.6542 538.302 20.6593 538.801 19.6645C539.483 18.314 539.49 16.8343 539.26 15.3545C539.081 14.1835 538.442 13.889 537.416 14.4924C536.304 15.1461 535.393 16.0225 534.604 17.0282C534.016 17.7897 533.306 17.998 532.373 17.8328C531.11 17.6101 530.192 17.0498 529.697 15.7998C529.353 14.9163 528.958 14.0183 528.169 13.4005C527.365 12.7684 526.813 12.8977 526.21 13.6951C525.084 15.1892 524.897 16.9061 524.904 18.6732C524.904 19.2264 524.897 19.7436 524.417 20.1315C523.771 20.6487 523.527 21.3598 523.606 22.1644C523.663 22.7894 523.427 22.7391 522.989 22.5451C521.934 22.0782 520.894 21.5682 519.775 21.2521C519.721 21.2361 519.666 21.2138 519.611 21.1912V21.1912C519.252 21.0444 519.152 21.4416 519.529 21.5299C519.567 21.5387 519.603 21.5485 519.639 21.561C520.916 22.0135 522.135 22.5954 523.369 23.1557C523.728 23.3209 523.95 23.5795 523.85 23.9387C523.813 24.0669 523.762 24.1093 523.703 24.1151C523.698 24.1157 523.692 24.1159 523.685 24.1159C523.501 24.115 523.323 24.0471 523.14 24.0249V24.0249C522.429 23.9387 521.077 23.4 520.947 23.66C520.839 23.8766 521.138 23.9856 521.24 24.0159C521.368 24.0538 521.048 23.9591 521.262 24.0156C521.475 24.072 521.195 24.0066 521.307 24.0327C521.401 24.0547 521.665 24.116 521.705 24.1255C522.221 24.2476 522.752 24.3554 523.283 24.4128C523.886 24.4775 524.108 24.7433 524.036 25.3539C523.97 25.9208 523.826 25.8341 523.544 25.7505C523.462 25.7261 523.218 25.698 523.147 25.6915C522.945 25.6701 522.743 25.6437 522.542 25.6172Z" fill="#00BFFF"/>
</svg>
