<svg width="587" height="258" viewBox="0 0 587 258" fill="none" xmlns="http://www.w3.org/2000/svg">
<path fill-rule="evenodd" clip-rule="evenodd" d="M137.366 25.6172C136.552 25.5103 134.863 25.3605 134.901 25.634C134.938 25.9075 137.017 25.9142 138.065 26.1225C138.095 26.1285 138.126 26.1337 138.156 26.1389C138.419 26.184 138.662 26.2256 138.553 26.6828C138.194 28.1913 137.828 29.7071 137.598 31.2371C137.531 31.6848 137.459 32.1316 137.387 32.578C136.953 35.2623 136.521 37.9344 137.118 40.7122C137.735 43.5999 138.093 46.5595 137.491 49.5335C137.197 50.9702 137.354 52.4069 137.67 53.822C137.928 55.0001 137.885 56.171 137.706 57.3491C137.68 57.5124 137.643 57.6764 137.606 57.8402C137.524 58.2096 137.442 58.5783 137.476 58.9367C137.613 60.3087 137.276 61.415 136.171 62.3057C135.762 62.6362 135.288 63.0959 135.539 63.7568C135.798 64.4536 136.436 64.6547 137.082 64.784C137.376 64.8415 137.72 64.8918 138 64.8056C139.607 64.3171 141.307 64.001 142.391 62.4997C143.166 61.4221 144.285 61.1564 145.533 61.2497C146.387 61.3144 147.183 61.6233 148.001 61.8244C149.127 62.0974 149.163 62.2123 148.41 63.06C147.865 63.6706 147.908 63.9795 148.632 64.3602C150.024 65.1001 151.481 65.1576 152.98 64.7409C153.619 64.5613 153.97 64.2381 153.891 63.4623C153.798 62.5356 154.3 62.1477 155.218 62.277C156.058 62.3991 156.897 62.5069 157.744 62.3344C158.913 62.0974 159.43 61.4796 159.444 60.2943C159.445 60.1762 159.444 60.0577 159.442 59.9393C159.434 59.4019 159.426 58.8662 159.702 58.3835L159.712 58.3666C160.684 56.6483 161.654 54.9358 161.596 52.8594C161.596 52.687 161.611 52.3781 161.912 52.4931C163.304 53.0103 164.875 52.9815 166.145 53.8867C166.64 54.2387 166.884 54.684 166.934 55.3018C167.063 56.875 166.224 57.9669 165.234 59.0157C164.803 59.4682 164.33 59.9783 164.724 60.6535C165.112 61.3072 165.786 61.3503 166.453 61.1995C167.644 60.9337 168.627 60.2656 169.531 59.4898C171.016 58.2111 171.605 56.0058 170.945 54.1596C170.206 52.0764 168.814 50.6756 166.633 50.1225C165.485 49.8352 164.308 49.6556 163.125 49.6412C162.307 49.6269 162.084 49.318 162.056 48.5565C162.051 48.4121 162.048 48.2666 162.046 48.1206V48.1206C162.046 44.5457 162.046 53.483 162.023 53.0699C161.996 52.5834 161.968 52.2925 161.9 51.8101C161.842 51.4004 161.304 48.6719 160.228 43.2148C160.138 42.7567 160.053 42.269 159.921 41.7405C159.62 40.1602 159.136 38.4494 158.533 36.948C157.414 34.1536 155.247 32.1925 153.181 30.1596C152.485 29.47 152.241 28.7301 152.22 27.825C152.212 27.3509 152.377 27.2144 152.829 27.4155C153.518 27.7316 154.25 27.9543 154.881 28.3997C155.111 28.5649 155.462 28.8091 155.62 28.5433C155.809 28.2352 155.475 28.0811 155.234 27.9704C155.2 27.9547 155.168 27.9398 155.14 27.9256C154.444 27.5664 153.705 27.2719 152.987 26.9486C152.937 26.9273 152.88 26.9114 152.823 26.8955C152.612 26.8365 152.398 26.7766 152.499 26.4314C152.593 26.0938 152.722 25.7992 153.159 25.7777C153.755 25.749 154.343 25.7418 154.931 25.8423C154.96 25.8474 154.989 25.8538 155.018 25.8602C155.194 25.8994 155.507 25.8805 155.592 25.713C155.676 25.5455 154.408 25.4113 153.841 25.4472C153.188 25.4903 153.081 25.2677 153.267 24.6786C153.389 24.2979 153.604 24.2117 153.941 24.1901C154.491 24.1524 155.039 24.0901 155.587 24.0278C156.605 23.912 157.624 23.7961 158.655 23.8381V23.8381C158.931 23.8527 158.819 23.4656 158.546 23.4254C158.384 23.4015 158.215 23.4192 158.05 23.4364C158.003 23.4414 157.955 23.4464 157.909 23.4502C156.646 23.5508 155.383 23.6873 154.121 23.7879C154.07 23.7919 154.014 23.8019 153.957 23.8121C153.707 23.857 153.427 23.9071 153.403 23.4862C153.388 23.2079 153.359 22.93 153.331 22.6524C153.228 21.6542 153.126 20.6593 153.626 19.6645C154.307 18.314 154.314 16.8343 154.085 15.3545C153.906 14.1835 153.267 13.889 152.241 14.4924C151.129 15.1461 150.218 16.0225 149.429 17.0282C148.841 17.7897 148.13 17.998 147.198 17.8328C145.935 17.6101 145.017 17.0498 144.522 15.7998C144.177 14.9163 143.783 14.0183 142.993 13.4005C142.19 12.7684 141.638 12.8977 141.035 13.6951C139.909 15.1892 139.722 16.9061 139.729 18.6732C139.729 19.2264 139.722 19.7436 139.241 20.1315C138.596 20.6487 138.352 21.3598 138.431 22.1644C138.488 22.7894 138.251 22.7391 137.814 22.5451C136.759 22.0782 135.719 21.5682 134.6 21.2521C134.545 21.2361 134.491 21.2138 134.436 21.1912V21.1912C134.077 21.0444 133.976 21.4416 134.354 21.5299C134.391 21.5387 134.428 21.5485 134.463 21.561C135.74 22.0135 136.96 22.5954 138.194 23.1557C138.553 23.3209 138.775 23.5795 138.675 23.9387C138.638 24.0669 138.587 24.1093 138.528 24.1151C138.522 24.1157 138.516 24.1159 138.51 24.1159C138.325 24.115 138.147 24.0471 137.964 24.0249V24.0249C137.254 23.9387 135.902 23.4 135.772 23.66C135.664 23.8766 135.962 23.9856 136.065 24.0159C136.193 24.0538 135.873 23.9591 136.087 24.0156C136.3 24.072 136.019 24.0066 136.132 24.0327C136.226 24.0547 136.489 24.116 136.529 24.1255C137.046 24.2476 137.577 24.3554 138.108 24.4128C138.71 24.4775 138.933 24.7433 138.861 25.3539C138.794 25.9208 138.651 25.8341 138.369 25.7505C138.286 25.7261 138.043 25.698 137.971 25.6915C137.769 25.6701 137.568 25.6437 137.366 25.6172Z" fill="#00BFFF"/>
<path fill-rule="evenodd" clip-rule="evenodd" d="M73.5417 12.6172C72.7277 12.5103 71.0387 12.3605 71.0761 12.634C71.1136 12.9075 73.1926 12.9142 74.24 13.1225C74.2704 13.1285 74.3011 13.1337 74.3315 13.1389C74.5948 13.184 74.8372 13.2256 74.7279 13.6828C74.3691 15.1913 74.0033 16.7071 73.7737 18.2371C73.7062 18.6848 73.634 19.1316 73.5618 19.578C73.1281 22.2623 72.6963 24.9344 73.293 27.7122C73.91 30.5999 74.2687 33.5595 73.6661 36.5335C73.3719 37.9702 73.5298 39.4069 73.8454 40.822C74.1037 42.0001 74.0606 43.171 73.8813 44.3491C73.8548 44.5124 73.8182 44.6764 73.7817 44.8402C73.6992 45.2096 73.6169 45.5783 73.6517 45.9367C73.788 47.3087 73.4508 48.415 72.346 49.3057C71.9371 49.6362 71.4636 50.0959 71.7147 50.7568C71.9729 51.4536 72.6114 51.6547 73.2571 51.784C73.5513 51.8415 73.8956 51.8918 74.1754 51.8056C75.7825 51.3171 77.4828 51.001 78.5661 49.4997C79.3409 48.4221 80.4601 48.1564 81.7084 48.2497C82.5622 48.3144 83.3585 48.6233 84.1764 48.8244C85.3028 49.0974 85.3386 49.2123 84.5853 50.06C84.0401 50.6706 84.0831 50.9795 84.8077 51.3602C86.1996 52.1001 87.6559 52.1576 89.1554 51.7409C89.7939 51.5613 90.1454 51.2381 90.0665 50.4623C89.9732 49.5356 90.4754 49.1477 91.3937 49.277C92.2331 49.3991 93.0725 49.5069 93.9191 49.3344C95.0885 49.0974 95.6051 48.4796 95.6194 47.2943C95.6207 47.1762 95.619 47.0577 95.6172 46.9393C95.6093 46.4019 95.6014 45.8662 95.8777 45.3835L95.8872 45.3666C96.8598 43.6483 97.8289 41.9358 97.7717 39.8594C97.7717 39.687 97.786 39.3781 98.0874 39.4931C99.4792 40.0103 101.05 39.9815 102.32 40.8867C102.815 41.2387 103.059 41.684 103.109 42.3018C103.239 43.875 102.399 44.9669 101.409 46.0157C100.979 46.4682 100.505 46.9783 100.9 47.6535C101.287 48.3072 101.961 48.3503 102.629 48.1995C103.82 47.9337 104.803 47.2656 105.706 46.4898C107.192 45.2111 107.78 43.0058 107.12 41.1596C106.381 39.0764 104.989 37.6756 102.808 37.1225C101.66 36.8352 100.484 36.6556 99.2998 36.6412C98.4819 36.6269 98.2595 36.318 98.2309 35.5565C98.226 35.4121 98.2235 35.2666 98.221 35.1206V35.1206C98.221 31.5457 98.221 40.483 98.1982 40.0699C98.1714 39.5834 98.143 39.2925 98.0752 38.8101C98.0176 38.4004 97.4795 35.6719 96.4034 30.2148C96.313 29.7567 96.2285 29.269 96.0966 28.7405C95.7952 27.1602 95.3109 25.4494 94.7083 23.948C93.5891 21.1536 91.4224 19.1925 89.3562 17.1596C88.6603 16.47 88.4164 15.7301 88.3949 14.825C88.3877 14.3509 88.5527 14.2144 89.0047 14.4155C89.6934 14.7316 90.4252 14.9543 91.0566 15.3997C91.2861 15.5649 91.6377 15.8091 91.7955 15.5433C91.984 15.2352 91.6499 15.0811 91.4097 14.9704C91.3756 14.9547 91.3434 14.9398 91.3148 14.9256C90.6189 14.5664 89.88 14.2719 89.1625 13.9486C89.1123 13.9273 89.0556 13.9114 88.9987 13.8955C88.7873 13.8365 88.573 13.7766 88.6747 13.4314C88.768 13.0938 88.8971 12.7992 89.3347 12.7777C89.9302 12.749 90.5185 12.7418 91.1068 12.8423C91.1352 12.8474 91.164 12.8538 91.193 12.8602C91.3691 12.8994 91.6822 12.8805 91.7668 12.713C91.8514 12.5455 90.5831 12.4113 90.0163 12.4472C89.3634 12.4903 89.2558 12.2677 89.4423 11.6786C89.5643 11.2979 89.7795 11.2117 90.1167 11.1901C90.6664 11.1524 91.2143 11.0901 91.7624 11.0278C92.7808 10.912 93.7994 10.7961 94.8302 10.8381V10.8381C95.1061 10.8527 94.9946 10.4656 94.7213 10.4254C94.5594 10.4015 94.3902 10.4192 94.2254 10.4364C94.1779 10.4414 94.1307 10.4464 94.0841 10.4502C92.8214 10.5508 91.5588 10.6873 90.2961 10.7879C90.2454 10.7919 90.1897 10.8019 90.1324 10.8121C89.8821 10.857 89.602 10.9071 89.5786 10.4862C89.563 10.2079 89.5345 9.93001 89.506 9.65237C89.4036 8.65415 89.3015 7.65931 89.8011 6.66454C90.4826 5.31405 90.4898 3.83425 90.2602 2.35445C90.0809 1.18355 89.4423 0.889023 88.4164 1.49244C87.3044 2.14613 86.3933 3.02252 85.6041 4.02821C85.0158 4.78965 84.3055 4.99798 83.3729 4.83275C82.1102 4.61007 81.1919 4.04975 80.6969 2.79983C80.3525 1.91626 79.9579 1.01832 79.1688 0.400545C78.3652 -0.231601 77.8128 -0.1023 77.2102 0.695068C76.0838 2.18923 75.8973 3.90609 75.9044 5.67322C75.9044 6.22635 75.8973 6.74356 75.4166 7.13147C74.7709 7.64868 74.527 8.35984 74.6059 9.1644C74.6633 9.78936 74.4265 9.73907 73.9889 9.54512C72.9343 9.0782 71.894 8.56817 70.7748 8.2521C70.7207 8.23615 70.6661 8.21381 70.611 8.19125V8.19125C70.2525 8.04436 70.1515 8.44161 70.5288 8.5299C70.5665 8.53873 70.6034 8.54851 70.6385 8.56098C71.9155 9.01354 73.1352 9.59541 74.3691 10.1557C74.7279 10.3209 74.9503 10.5795 74.8498 10.9387C74.8129 11.0669 74.7623 11.1093 74.7031 11.1151C74.6976 11.1157 74.6916 11.1159 74.6852 11.1159C74.5008 11.115 74.3226 11.0471 74.1396 11.0249V11.0249C73.4293 10.9387 72.0773 10.4 71.9475 10.66C71.8393 10.8766 72.1376 10.9856 72.2401 11.0159C72.3681 11.0538 72.0482 10.9591 72.2618 11.0156C72.4754 11.072 72.1945 11.0066 72.3069 11.0327C72.4012 11.0547 72.6647 11.116 72.7047 11.1255C73.2213 11.2476 73.7522 11.3554 74.2831 11.4128C74.8857 11.4775 75.1081 11.7433 75.0364 12.3539C74.9698 12.9208 74.826 12.8341 74.5442 12.7505C74.4617 12.7261 74.2182 12.698 74.1467 12.6915C73.9446 12.6701 73.743 12.6437 73.5417 12.6172Z" fill="#FFD700"/>
<path fill-rule="evenodd" clip-rule="evenodd" d="M3.54166 25.6172C2.72774 25.5103 1.03867 25.3605 1.07614 25.634C1.11361 25.9075 3.19256 25.9142 4.24001 26.1225C4.27043 26.1285 4.30113 26.1337 4.33148 26.1389C4.59478 26.184 4.8372 26.2256 4.72786 26.6828C4.36915 28.1913 4.00326 29.7071 3.77368 31.2371C3.70617 31.6848 3.634 32.1316 3.56182 32.578C3.12814 35.2623 2.69631 37.9344 3.293 40.7122C3.90999 43.5999 4.26871 46.5595 3.66606 49.5335C3.37192 50.9702 3.52975 52.4069 3.84542 53.822C4.1037 55.0001 4.06065 56.171 3.88129 57.3491C3.85482 57.5124 3.81823 57.6764 3.78171 57.8402C3.69921 58.2096 3.61692 58.5783 3.65171 58.9367C3.78803 60.3087 3.45083 61.415 2.34599 62.3057C1.93706 62.6362 1.46356 63.0959 1.71466 63.7568C1.97293 64.4536 2.61144 64.6547 3.25713 64.784C3.55128 64.8415 3.89564 64.8918 4.17544 64.8056C5.78248 64.3171 7.48279 64.001 8.56611 62.4997C9.34093 61.4221 10.4601 61.1564 11.7084 61.2497C12.5622 61.3144 13.3585 61.6233 14.1764 61.8244C15.3028 62.0974 15.3386 62.2123 14.5853 63.06C14.0401 63.6706 14.0831 63.9795 14.8077 64.3602C16.1996 65.1001 17.6559 65.1576 19.1554 64.7409C19.7939 64.5613 20.1454 64.2381 20.0665 63.4623C19.9732 62.5356 20.4754 62.1477 21.3937 62.277C22.2331 62.3991 23.0725 62.5069 23.9191 62.3344C25.0885 62.0974 25.6051 61.4796 25.6194 60.2943C25.6207 60.1762 25.619 60.0577 25.6172 59.9393C25.6093 59.4019 25.6014 58.8662 25.8777 58.3835L25.8872 58.3666C26.8598 56.6483 27.8289 54.9358 27.7717 52.8594C27.7717 52.687 27.786 52.3781 28.0874 52.4931C29.4792 53.0103 31.0503 52.9815 32.3202 53.8867C32.8152 54.2387 33.0591 54.684 33.1094 55.3018C33.2385 56.875 32.3991 57.9669 31.4091 59.0157C30.9786 59.4682 30.5051 59.9783 30.8997 60.6535C31.2871 61.3072 31.9615 61.3503 32.6287 61.1995C33.8196 60.9337 34.8025 60.2656 35.7065 59.4898C37.1915 58.2111 37.7798 56.0058 37.1198 54.1596C36.3808 52.0764 34.989 50.6756 32.8081 50.1225C31.6602 49.8352 30.4836 49.6556 29.2998 49.6412C28.4819 49.6269 28.2595 49.318 28.2309 48.5565C28.226 48.4121 28.2235 48.2666 28.221 48.1206V48.1206C28.221 44.5457 28.221 53.483 28.1982 53.0699C28.1714 52.5834 28.143 52.2925 28.0752 51.8101C28.0176 51.4004 27.4795 48.6719 26.4034 43.2148C26.313 42.7567 26.2285 42.269 26.0966 41.7405C25.7952 40.1602 25.3109 38.4494 24.7083 36.948C23.5891 34.1536 21.4224 32.1925 19.3562 30.1596C18.6603 29.47 18.4164 28.7301 18.3949 27.825C18.3877 27.3509 18.5527 27.2144 19.0047 27.4155C19.6934 27.7316 20.4252 27.9543 21.0566 28.3997C21.2861 28.5649 21.6377 28.8091 21.7955 28.5433C21.984 28.2352 21.6499 28.0811 21.4097 27.9704C21.3756 27.9547 21.3434 27.9398 21.3148 27.9256C20.6189 27.5664 19.88 27.2719 19.1625 26.9486C19.1123 26.9273 19.0556 26.9114 18.9987 26.8955C18.7873 26.8365 18.573 26.7766 18.6747 26.4314C18.768 26.0938 18.8971 25.7992 19.3347 25.7777C19.9302 25.749 20.5185 25.7418 21.1068 25.8423C21.1352 25.8474 21.164 25.8538 21.193 25.8602C21.3691 25.8994 21.6822 25.8805 21.7668 25.713C21.8514 25.5455 20.5831 25.4113 20.0163 25.4472C19.3634 25.4903 19.2558 25.2677 19.4423 24.6786C19.5643 24.2979 19.7795 24.2117 20.1167 24.1901C20.6664 24.1524 21.2143 24.0901 21.7624 24.0278C22.7808 23.912 23.7994 23.7961 24.8302 23.8381V23.8381C25.1061 23.8527 24.9946 23.4656 24.7213 23.4254C24.5594 23.4015 24.3902 23.4192 24.2254 23.4364C24.1779 23.4414 24.1307 23.4464 24.0841 23.4502C22.8214 23.5508 21.5588 23.6873 20.2961 23.7879C20.2454 23.7919 20.1897 23.8019 20.1324 23.8121C19.8821 23.857 19.602 23.9071 19.5786 23.4862C19.563 23.2079 19.5345 22.93 19.506 22.6524C19.4036 21.6542 19.3015 20.6593 19.8011 19.6645C20.4826 18.314 20.4898 16.8343 20.2602 15.3545C20.0809 14.1835 19.4423 13.889 18.4164 14.4924C17.3044 15.1461 16.3933 16.0225 15.6041 17.0282C15.0158 17.7897 14.3055 17.998 13.3729 17.8328C12.1102 17.6101 11.1919 17.0498 10.6969 15.7998C10.3525 14.9163 9.95792 14.0183 9.16875 13.4005C8.36523 12.7684 7.81281 12.8977 7.21017 13.6951C6.0838 15.1892 5.89727 16.9061 5.90445 18.6732C5.90445 19.2264 5.89727 19.7436 5.41659 20.1315C4.77091 20.6487 4.52698 21.3598 4.6059 22.1644C4.66329 22.7894 4.42654 22.7391 3.98891 22.5451C2.93429 22.0782 1.89401 21.5682 0.774824 21.2521C0.720657 21.2361 0.666132 21.2138 0.611034 21.1912V21.1912C0.252465 21.0444 0.151531 21.4416 0.528828 21.5299C0.566536 21.5387 0.603417 21.5485 0.638512 21.561C1.91553 22.0135 3.13517 22.5954 4.36915 23.1557C4.72786 23.3209 4.95026 23.5795 4.84982 23.9387C4.81294 24.0669 4.76232 24.1093 4.70315 24.1151C4.69764 24.1157 4.69161 24.1159 4.68516 24.1159C4.50076 24.115 4.32263 24.0471 4.13957 24.0249V24.0249C3.42931 23.9387 2.07733 23.4 1.9475 23.66C1.83931 23.8766 2.13764 23.9856 2.24014 24.0159C2.36812 24.0538 2.04817 23.9591 2.2618 24.0156C2.47544 24.072 2.19451 24.0066 2.30688 24.0327C2.40125 24.0547 2.66467 24.116 2.70471 24.1255C3.22126 24.2476 3.75216 24.3554 4.28305 24.4128C4.8857 24.4775 5.1081 24.7433 5.03635 25.3539C4.96978 25.9208 4.82599 25.8341 4.54418 25.7505C4.46175 25.7261 4.2182 25.698 4.14674 25.6915C3.94464 25.6701 3.74304 25.6437 3.54166 25.6172Z" fill="#8BC34A"/>
<path fill-rule="evenodd" clip-rule="evenodd" d="M552.366 218.617C551.552 218.51 549.863 218.361 549.901 218.634C549.938 218.908 552.017 218.914 553.065 219.123C553.095 219.128 553.126 219.134 553.156 219.139C553.419 219.184 553.662 219.226 553.553 219.683C553.194 221.191 552.828 222.707 552.598 224.237C552.531 224.685 552.459 225.132 552.387 225.578C551.953 228.262 551.521 230.934 552.118 233.712C552.735 236.6 553.093 239.56 552.491 242.533C552.197 243.97 552.354 245.407 552.67 246.822C552.928 248 552.885 249.171 552.706 250.349C552.68 250.512 552.643 250.676 552.606 250.84C552.524 251.21 552.442 251.578 552.476 251.937C552.613 253.309 552.276 254.415 551.171 255.306C550.762 255.636 550.288 256.096 550.539 256.757C550.798 257.454 551.436 257.655 552.082 257.784C552.376 257.841 552.72 257.892 553 257.806C554.607 257.317 556.307 257.001 557.391 255.5C558.166 254.422 559.285 254.156 560.533 254.25C561.387 254.314 562.183 254.623 563.001 254.824C564.127 255.097 564.163 255.212 563.41 256.06C562.865 256.671 562.908 256.979 563.632 257.36C565.024 258.1 566.481 258.158 567.98 257.741C568.619 257.561 568.97 257.238 568.891 256.462C568.798 255.536 569.3 255.148 570.218 255.277C571.058 255.399 571.897 255.507 572.744 255.334C573.913 255.097 574.43 254.48 574.444 253.294C574.445 253.176 574.444 253.058 574.442 252.939C574.434 252.402 574.426 251.866 574.702 251.384L574.712 251.367C575.684 249.648 576.654 247.936 576.596 245.859C576.596 245.687 576.611 245.378 576.912 245.493C578.304 246.01 579.875 245.982 581.145 246.887C581.64 247.239 581.884 247.684 581.934 248.302C582.063 249.875 581.224 250.967 580.234 252.016C579.803 252.468 579.33 252.978 579.724 253.654C580.112 254.307 580.786 254.35 581.453 254.199C582.644 253.934 583.627 253.266 584.531 252.49C586.016 251.211 586.605 249.006 585.945 247.16C585.206 245.076 583.814 243.676 581.633 243.123C580.485 242.835 579.308 242.656 578.125 242.641C577.307 242.627 577.084 242.318 577.056 241.557C577.051 241.412 577.048 241.267 577.046 241.121V241.121C577.046 237.546 577.046 246.483 577.023 246.07C576.996 245.583 576.968 245.293 576.9 244.81C576.842 244.4 576.304 241.672 575.228 236.215C575.138 235.757 575.053 235.269 574.921 234.741C574.62 233.16 574.136 231.449 573.533 229.948C572.414 227.154 570.247 225.193 568.181 223.16C567.485 222.47 567.241 221.73 567.22 220.825C567.212 220.351 567.377 220.214 567.829 220.416C568.518 220.732 569.25 220.954 569.881 221.4C570.111 221.565 570.462 221.809 570.62 221.543C570.809 221.235 570.475 221.081 570.234 220.97C570.2 220.955 570.168 220.94 570.14 220.926C569.444 220.566 568.705 220.272 567.987 219.949C567.937 219.927 567.88 219.911 567.823 219.896C567.612 219.836 567.398 219.777 567.499 219.431C567.593 219.094 567.722 218.799 568.159 218.778C568.755 218.749 569.343 218.742 569.931 218.842C569.96 218.847 569.989 218.854 570.018 218.86C570.194 218.899 570.507 218.881 570.592 218.713C570.676 218.546 569.408 218.411 568.841 218.447C568.188 218.49 568.081 218.268 568.267 217.679C568.389 217.298 568.604 217.212 568.941 217.19C569.491 217.152 570.039 217.09 570.587 217.028C571.605 216.912 572.624 216.796 573.655 216.838V216.838C573.931 216.853 573.819 216.466 573.546 216.425C573.384 216.402 573.215 216.419 573.05 216.436C573.003 216.441 572.955 216.446 572.909 216.45C571.646 216.551 570.383 216.687 569.121 216.788C569.07 216.792 569.014 216.802 568.957 216.812C568.707 216.857 568.427 216.907 568.403 216.486C568.388 216.208 568.359 215.93 568.331 215.652C568.228 214.654 568.126 213.659 568.626 212.665C569.307 211.314 569.314 209.834 569.085 208.354C568.906 207.184 568.267 206.889 567.241 207.492C566.129 208.146 565.218 209.023 564.429 210.028C563.841 210.79 563.13 210.998 562.198 210.833C560.935 210.61 560.017 210.05 559.522 208.8C559.177 207.916 558.783 207.018 557.993 206.401C557.19 205.768 556.638 205.898 556.035 206.695C554.909 208.189 554.722 209.906 554.729 211.673C554.729 212.226 554.722 212.744 554.241 213.131C553.596 213.649 553.352 214.36 553.431 215.164C553.488 215.789 553.251 215.739 552.814 215.545C551.759 215.078 550.719 214.568 549.6 214.252C549.545 214.236 549.491 214.214 549.436 214.191V214.191C549.077 214.044 548.976 214.442 549.354 214.53C549.391 214.539 549.428 214.549 549.463 214.561C550.74 215.014 551.96 215.595 553.194 216.156C553.553 216.321 553.775 216.58 553.675 216.939C553.638 217.067 553.587 217.109 553.528 217.115C553.522 217.116 553.516 217.116 553.51 217.116C553.325 217.115 553.147 217.047 552.964 217.025V217.025C552.254 216.939 550.902 216.4 550.772 216.66C550.664 216.877 550.962 216.986 551.065 217.016C551.193 217.054 550.873 216.959 551.087 217.016C551.3 217.072 551.019 217.007 551.132 217.033C551.226 217.055 551.489 217.116 551.529 217.125C552.046 217.248 552.577 217.355 553.108 217.413C553.71 217.477 553.933 217.743 553.861 218.354C553.794 218.921 553.651 218.834 553.369 218.751C553.286 218.726 553.043 218.698 552.971 218.691C552.769 218.67 552.568 218.644 552.366 218.617Z" fill="#8BC34A"/>
<path fill-rule="evenodd" clip-rule="evenodd" d="M488.542 205.617C487.728 205.51 486.039 205.361 486.076 205.634C486.114 205.908 488.193 205.914 489.24 206.123C489.27 206.128 489.301 206.134 489.331 206.139C489.595 206.184 489.837 206.226 489.728 206.683C489.369 208.191 489.003 209.707 488.774 211.237C488.706 211.685 488.634 212.132 488.562 212.578C488.128 215.262 487.696 217.934 488.293 220.712C488.91 223.6 489.269 226.56 488.666 229.533C488.372 230.97 488.53 232.407 488.845 233.822C489.104 235 489.061 236.171 488.881 237.349C488.855 237.512 488.818 237.676 488.782 237.84C488.699 238.21 488.617 238.578 488.652 238.937C488.788 240.309 488.451 241.415 487.346 242.306C486.937 242.636 486.464 243.096 486.715 243.757C486.973 244.454 487.611 244.655 488.257 244.784C488.551 244.841 488.896 244.892 489.175 244.806C490.782 244.317 492.483 244.001 493.566 242.5C494.341 241.422 495.46 241.156 496.708 241.25C497.562 241.314 498.359 241.623 499.176 241.824C500.303 242.097 500.339 242.212 499.585 243.06C499.04 243.671 499.083 243.979 499.808 244.36C501.2 245.1 502.656 245.158 504.155 244.741C504.794 244.561 505.145 244.238 505.066 243.462C504.973 242.536 505.475 242.148 506.394 242.277C507.233 242.399 508.073 242.507 508.919 242.334C510.089 242.097 510.605 241.48 510.619 240.294C510.621 240.176 510.619 240.058 510.617 239.939C510.609 239.402 510.601 238.866 510.878 238.384L510.887 238.367C511.86 236.648 512.829 234.936 512.772 232.859C512.772 232.687 512.786 232.378 513.087 232.493C514.479 233.01 516.05 232.982 517.32 233.887C517.815 234.239 518.059 234.684 518.109 235.302C518.239 236.875 517.399 237.967 516.409 239.016C515.979 239.468 515.505 239.978 515.9 240.654C516.287 241.307 516.961 241.35 517.629 241.199C518.82 240.934 519.803 240.266 520.706 239.49C522.192 238.211 522.78 236.006 522.12 234.16C521.381 232.076 519.989 230.676 517.808 230.123C516.66 229.835 515.484 229.656 514.3 229.641C513.482 229.627 513.26 229.318 513.231 228.557C513.226 228.412 513.223 228.267 513.221 228.121V228.121C513.221 224.546 513.221 233.483 513.198 233.07C513.171 232.583 513.143 232.293 513.075 231.81C513.018 231.4 512.48 228.672 511.403 223.215C511.313 222.757 511.229 222.269 511.097 221.741C510.795 220.16 510.311 218.449 509.708 216.948C508.589 214.154 506.422 212.193 504.356 210.16C503.66 209.47 503.416 208.73 503.395 207.825C503.388 207.351 503.553 207.214 504.005 207.416C504.693 207.732 505.425 207.954 506.057 208.4C506.286 208.565 506.638 208.809 506.796 208.543C506.984 208.235 506.65 208.081 506.41 207.97C506.376 207.955 506.343 207.94 506.315 207.926C505.619 207.566 504.88 207.272 504.163 206.949C504.112 206.927 504.056 206.911 503.999 206.896C503.787 206.836 503.573 206.777 503.675 206.431C503.768 206.094 503.897 205.799 504.335 205.778C504.93 205.749 505.518 205.742 506.107 205.842C506.135 205.847 506.164 205.854 506.193 205.86C506.369 205.899 506.682 205.881 506.767 205.713C506.851 205.546 505.583 205.411 505.016 205.447C504.363 205.49 504.256 205.268 504.442 204.679C504.564 204.298 504.78 204.212 505.117 204.19C505.666 204.152 506.214 204.09 506.762 204.028C507.781 203.912 508.799 203.796 509.83 203.838V203.838C510.106 203.853 509.995 203.466 509.721 203.425C509.559 203.402 509.39 203.419 509.225 203.436C509.178 203.441 509.131 203.446 509.084 203.45C507.821 203.551 506.559 203.687 505.296 203.788C505.245 203.792 505.19 203.802 505.132 203.812C504.882 203.857 504.602 203.907 504.579 203.486C504.563 203.208 504.535 202.93 504.506 202.652C504.404 201.654 504.302 200.659 504.801 199.665C505.483 198.314 505.49 196.834 505.26 195.354C505.081 194.184 504.442 193.889 503.416 194.492C502.304 195.146 501.393 196.023 500.604 197.028C500.016 197.79 499.306 197.998 498.373 197.833C497.11 197.61 496.192 197.05 495.697 195.8C495.353 194.916 494.958 194.018 494.169 193.401C493.365 192.768 492.813 192.898 492.21 193.695C491.084 195.189 490.897 196.906 490.904 198.673C490.904 199.226 490.897 199.744 490.417 200.131C489.771 200.649 489.527 201.36 489.606 202.164C489.663 202.789 489.427 202.739 488.989 202.545C487.934 202.078 486.894 201.568 485.775 201.252C485.721 201.236 485.666 201.214 485.611 201.191V201.191C485.252 201.044 485.152 201.442 485.529 201.53C485.567 201.539 485.603 201.549 485.639 201.561C486.916 202.014 488.135 202.595 489.369 203.156C489.728 203.321 489.95 203.58 489.85 203.939C489.813 204.067 489.762 204.109 489.703 204.115C489.698 204.116 489.692 204.116 489.685 204.116C489.501 204.115 489.323 204.047 489.14 204.025V204.025C488.429 203.939 487.077 203.4 486.947 203.66C486.839 203.877 487.138 203.986 487.24 204.016C487.368 204.054 487.048 203.959 487.262 204.016C487.475 204.072 487.195 204.007 487.307 204.033C487.401 204.055 487.665 204.116 487.705 204.125C488.221 204.248 488.752 204.355 489.283 204.413C489.886 204.477 490.108 204.743 490.036 205.354C489.97 205.921 489.826 205.834 489.544 205.751C489.462 205.726 489.218 205.698 489.147 205.691C488.945 205.67 488.743 205.644 488.542 205.617Z" fill="#FFD700"/>
<path fill-rule="evenodd" clip-rule="evenodd" d="M418.542 218.617C417.728 218.51 416.039 218.361 416.076 218.634C416.114 218.908 418.193 218.914 419.24 219.123C419.27 219.128 419.301 219.134 419.331 219.139C419.595 219.184 419.837 219.226 419.728 219.683C419.369 221.191 419.003 222.707 418.774 224.237C418.706 224.685 418.634 225.132 418.562 225.578C418.128 228.262 417.696 230.934 418.293 233.712C418.91 236.6 419.269 239.56 418.666 242.533C418.372 243.97 418.53 245.407 418.845 246.822C419.104 248 419.061 249.171 418.881 250.349C418.855 250.512 418.818 250.676 418.782 250.84C418.699 251.21 418.617 251.578 418.652 251.937C418.788 253.309 418.451 254.415 417.346 255.306C416.937 255.636 416.464 256.096 416.715 256.757C416.973 257.454 417.611 257.655 418.257 257.784C418.551 257.841 418.896 257.892 419.175 257.806C420.782 257.317 422.483 257.001 423.566 255.5C424.341 254.422 425.46 254.156 426.708 254.25C427.562 254.314 428.359 254.623 429.176 254.824C430.303 255.097 430.339 255.212 429.585 256.06C429.04 256.671 429.083 256.979 429.808 257.36C431.2 258.1 432.656 258.158 434.155 257.741C434.794 257.561 435.145 257.238 435.066 256.462C434.973 255.536 435.475 255.148 436.394 255.277C437.233 255.399 438.073 255.507 438.919 255.334C440.089 255.097 440.605 254.48 440.619 253.294C440.621 253.176 440.619 253.058 440.617 252.939C440.609 252.402 440.601 251.866 440.878 251.384L440.887 251.367C441.86 249.648 442.829 247.936 442.772 245.859C442.772 245.687 442.786 245.378 443.087 245.493C444.479 246.01 446.05 245.982 447.32 246.887C447.815 247.239 448.059 247.684 448.109 248.302C448.239 249.875 447.399 250.967 446.409 252.016C445.979 252.468 445.505 252.978 445.9 253.654C446.287 254.307 446.961 254.35 447.629 254.199C448.82 253.934 449.803 253.266 450.706 252.49C452.192 251.211 452.78 249.006 452.12 247.16C451.381 245.076 449.989 243.676 447.808 243.123C446.66 242.835 445.484 242.656 444.3 242.641C443.482 242.627 443.26 242.318 443.231 241.557C443.226 241.412 443.223 241.267 443.221 241.121V241.121C443.221 237.546 443.221 246.483 443.198 246.07C443.171 245.583 443.143 245.293 443.075 244.81C443.018 244.4 442.48 241.672 441.403 236.215C441.313 235.757 441.229 235.269 441.097 234.741C440.795 233.16 440.311 231.449 439.708 229.948C438.589 227.154 436.422 225.193 434.356 223.16C433.66 222.47 433.416 221.73 433.395 220.825C433.388 220.351 433.553 220.214 434.005 220.416C434.693 220.732 435.425 220.954 436.057 221.4C436.286 221.565 436.638 221.809 436.796 221.543C436.984 221.235 436.65 221.081 436.41 220.97C436.376 220.955 436.343 220.94 436.315 220.926C435.619 220.566 434.88 220.272 434.163 219.949C434.112 219.927 434.056 219.911 433.999 219.896C433.787 219.836 433.573 219.777 433.675 219.431C433.768 219.094 433.897 218.799 434.335 218.778C434.93 218.749 435.518 218.742 436.107 218.842C436.135 218.847 436.164 218.854 436.193 218.86C436.369 218.899 436.682 218.881 436.767 218.713C436.851 218.546 435.583 218.411 435.016 218.447C434.363 218.49 434.256 218.268 434.442 217.679C434.564 217.298 434.78 217.212 435.117 217.19C435.666 217.152 436.214 217.09 436.762 217.028C437.781 216.912 438.799 216.796 439.83 216.838V216.838C440.106 216.853 439.995 216.466 439.721 216.425C439.559 216.402 439.39 216.419 439.225 216.436C439.178 216.441 439.131 216.446 439.084 216.45C437.821 216.551 436.559 216.687 435.296 216.788C435.245 216.792 435.19 216.802 435.132 216.812C434.882 216.857 434.602 216.907 434.579 216.486C434.563 216.208 434.535 215.93 434.506 215.652C434.404 214.654 434.302 213.659 434.801 212.665C435.483 211.314 435.49 209.834 435.26 208.354C435.081 207.184 434.442 206.889 433.416 207.492C432.304 208.146 431.393 209.023 430.604 210.028C430.016 210.79 429.306 210.998 428.373 210.833C427.11 210.61 426.192 210.05 425.697 208.8C425.353 207.916 424.958 207.018 424.169 206.401C423.365 205.768 422.813 205.898 422.21 206.695C421.084 208.189 420.897 209.906 420.904 211.673C420.904 212.226 420.897 212.744 420.417 213.131C419.771 213.649 419.527 214.36 419.606 215.164C419.663 215.789 419.427 215.739 418.989 215.545C417.934 215.078 416.894 214.568 415.775 214.252C415.721 214.236 415.666 214.214 415.611 214.191V214.191C415.252 214.044 415.152 214.442 415.529 214.53C415.567 214.539 415.603 214.549 415.639 214.561C416.916 215.014 418.135 215.595 419.369 216.156C419.728 216.321 419.95 216.58 419.85 216.939C419.813 217.067 419.762 217.109 419.703 217.115C419.698 217.116 419.692 217.116 419.685 217.116C419.501 217.115 419.323 217.047 419.14 217.025V217.025C418.429 216.939 417.077 216.4 416.947 216.66C416.839 216.877 417.138 216.986 417.24 217.016C417.368 217.054 417.048 216.959 417.262 217.016C417.475 217.072 417.195 217.007 417.307 217.033C417.401 217.055 417.665 217.116 417.705 217.125C418.221 217.248 418.752 217.355 419.283 217.413C419.886 217.477 420.108 217.743 420.036 218.354C419.97 218.921 419.826 218.834 419.544 218.751C419.462 218.726 419.218 218.698 419.147 218.691C418.945 218.67 418.743 218.644 418.542 218.617Z" fill="#00BFFF"/>
</svg>
