<svg width="48" height="48" viewBox="0 0 48 48" fill="none" xmlns="http://www.w3.org/2000/svg">
<rect width="48" height="48" rx="24" fill="#1D2022"/>
<path d="M18.492 33V17.304H22.692C25.092 17.304 26.964 17.952 28.308 19.248C29.652 20.544 30.324 22.488 30.324 25.08C30.324 27.688 29.66 29.664 28.332 31.008C27.004 32.336 25.172 33 22.836 33H18.492ZM21.276 30.744H22.5C24.084 30.744 25.308 30.288 26.172 29.376C27.036 28.448 27.468 27.016 27.468 25.08C27.468 23.16 27.036 21.76 26.172 20.88C25.308 20 24.084 19.56 22.5 19.56H21.276V30.744Z" fill="#FFFDFA"/>
</svg>
