<svg width="32" height="32" viewBox="0 0 32 32" fill="none" xmlns="http://www.w3.org/2000/svg">
<g clip-path="url(#clip0_1_1483)">
<path fill-rule="evenodd" clip-rule="evenodd" d="M0 12.8C0 8.31958 0 6.07937 0.871948 4.36808C1.63893 2.86278 2.86278 1.63893 4.36808 0.871948C6.07937 0 8.31958 0 12.8 0H19.2C23.6804 0 25.9206 0 27.6319 0.871948C29.1372 1.63893 30.3611 2.86278 31.1281 4.36808C32 6.07937 32 8.31958 32 12.8V19.2C32 23.6804 32 25.9206 31.1281 27.6319C30.3611 29.1372 29.1372 30.3611 27.6319 31.1281C25.9206 32 23.6804 32 19.2 32H12.8C8.31958 32 6.07937 32 4.36808 31.1281C2.86278 30.3611 1.63893 29.1372 0.871948 27.6319C0 25.9206 0 23.6804 0 19.2V12.8ZM4 16C4 9.373 9.37 4 16 4C22.627 4 28 9.373 28 16C28 21.295 24.565 25.795 19.764 27.369C19.149 27.489 18.939 27.114 18.939 26.799C18.939 26.6703 18.9406 26.4434 18.9428 26.1395C18.9473 25.5229 18.954 24.5888 18.954 23.513C18.954 22.389 18.564 21.653 18.144 21.293C20.814 20.998 23.619 19.983 23.619 15.373C23.619 14.063 23.154 12.993 22.389 12.153C22.509 11.85 22.914 10.63 22.269 8.977C22.269 8.977 21.264 8.655 18.984 10.207C18.024 9.94 17.004 9.808 15.984 9.802C14.964 9.808 13.944 9.94 12.984 10.207C10.689 8.655 9.684 8.977 9.684 8.977C9.039 10.63 9.444 11.85 9.579 12.153C8.809 12.993 8.344 14.063 8.344 15.373C8.344 19.971 11.145 21.003 13.81 21.303C13.467 21.603 13.158 22.132 13.05 22.908C12.364 23.215 10.625 23.745 9.555 21.91C9.555 21.91 8.922 20.758 7.717 20.674C7.717 20.674 6.546 20.659 7.633 21.403C7.633 21.403 8.422 21.773 8.968 23.158C8.968 23.158 9.672 25.492 13.01 24.768C13.0128 25.3233 13.0171 25.803 13.0204 26.1687C13.023 26.4616 13.025 26.6813 13.025 26.808C13.025 27.127 12.805 27.498 12.205 27.385C7.438 25.8 4 21.303 4 16Z" fill="#212427"/>
</g>
<defs>
<clipPath id="clip0_1_1483">
<rect width="32" height="32" fill="white"/>
</clipPath>
</defs>
</svg>
