<svg width="41" height="47" viewBox="0 0 41 47" fill="none" xmlns="http://www.w3.org/2000/svg">
<path d="M37.7259 25.082H3.27447C2.41005 25.082 1.7085 24.3733 1.7085 23.5002C1.7085 22.6271 2.41005 21.9185 3.27447 21.9185H37.7259C38.5903 21.9185 39.2918 22.6271 39.2918 23.5002C39.2918 24.3733 38.5903 25.082 37.7259 25.082ZM37.7259 12.9552H3.27447C2.41005 12.9552 1.7085 12.2465 1.7085 11.3734C1.7085 10.5003 2.41005 9.79169 3.27447 9.79169H37.7259C38.5903 9.79169 39.2918 10.5003 39.2918 11.3734C39.2918 12.2465 38.5903 12.9552 37.7259 12.9552ZM37.7259 37.2084H3.27447C2.41005 37.2084 1.7085 36.4997 1.7085 35.6266C1.7085 34.7535 2.41005 34.0449 3.27447 34.0449H37.7259C38.5903 34.0449 39.2918 34.7535 39.2918 35.6266C39.2918 36.4997 38.5903 37.2084 37.7259 37.2084Z" fill="#212427"/>
</svg>
