<svg width="35" height="35" viewBox="0 0 35 35" fill="none" xmlns="http://www.w3.org/2000/svg">
<path fill-rule="evenodd" clip-rule="evenodd" d="M27.7084 14.5833C27.7084 8.66362 24.4441 4.55502 20.2204 3.32158C20.0675 2.92586 19.8258 2.55798 19.4972 2.2493C18.3747 1.19457 16.6255 1.19457 15.5029 2.2493C15.1751 2.5573 14.9337 2.92425 14.7807 3.31897C10.5516 4.54704 7.29175 8.64666 7.29175 14.5833C7.29175 18.4243 6.51735 20.5767 5.08377 22.1364C4.84408 22.3972 4.19466 22.9946 3.75477 23.3993L3.75467 23.3994L3.75435 23.3997C3.54644 23.591 3.38541 23.7391 3.3367 23.7882L2.91675 24.214V29.1871H11.795C12.0953 30.7359 12.9356 31.7721 14.4554 32.6995C16.3249 33.8404 18.6753 33.8404 20.5448 32.6995C21.886 31.8811 22.7853 30.6233 23.1501 29.1871H32.0834V24.214L31.6635 23.7882C31.6193 23.7433 31.4646 23.6007 31.2624 23.4142L31.2624 23.4141L31.2623 23.414C30.8237 23.0095 30.1617 22.3988 29.9183 22.133C28.4838 20.5659 27.7084 18.4109 27.7084 14.5833ZM20.0328 29.1871H14.8439C15.0499 29.5704 15.4011 29.8598 15.9747 30.2098C16.9113 30.7814 18.0889 30.7814 19.0255 30.2098C19.4592 29.9452 19.7981 29.595 20.0328 29.1871ZM27.767 24.1024C28.0739 24.4376 28.7316 25.0504 29.1667 25.4506V26.2705H5.83341V25.4513C6.26519 25.0557 6.92488 24.4434 7.23121 24.1101C9.17915 21.9907 10.2084 19.13 10.2084 14.5833C10.2084 9.0706 13.6104 5.85131 17.5001 5.85131C21.3788 5.85131 24.7917 9.08722 24.7917 14.5833C24.7917 19.1155 25.8213 21.977 27.767 24.1024Z" fill="#212427"/>
</svg>
