<svg width="48" height="48" viewBox="0 0 48 48" fill="none" xmlns="http://www.w3.org/2000/svg">
<rect width="48" height="48" rx="24" fill="#1D2022"/>
<path d="M24.0087 33.288C22.8087 33.288 21.7607 33.048 20.8647 32.568C19.9687 32.088 19.2727 31.32 18.7767 30.264C18.2967 29.208 18.0567 27.824 18.0567 26.112V17.304H20.8407V26.328C20.8407 27.464 20.9687 28.368 21.2247 29.04C21.4967 29.696 21.8727 30.168 22.3527 30.456C22.8327 30.728 23.3847 30.864 24.0087 30.864C24.6487 30.864 25.2087 30.728 25.6887 30.456C26.1847 30.168 26.5687 29.696 26.8407 29.04C27.1287 28.368 27.2727 27.464 27.2727 26.328V17.304H29.9367V26.112C29.9367 27.824 29.6967 29.208 29.2167 30.264C28.7367 31.32 28.0487 32.088 27.1527 32.568C26.2727 33.048 25.2247 33.288 24.0087 33.288Z" fill="#FFFDFA"/>
</svg>
